<?xml version="1.0" encoding="utf-8" standalone="no"?>
<!DOCTYPE svg PUBLIC "-//W3C//DTD SVG 1.1//EN"
  "http://www.w3.org/Graphics/SVG/1.1/DTD/svg11.dtd">
<svg xmlns:xlink="http://www.w3.org/1999/xlink" width="648pt" height="360pt" viewBox="0 0 648 360" xmlns="http://www.w3.org/2000/svg" version="1.1">
 <metadata>
  <rdf:RDF xmlns:dc="http://purl.org/dc/elements/1.1/" xmlns:cc="http://creativecommons.org/ns#" xmlns:rdf="http://www.w3.org/1999/02/22-rdf-syntax-ns#">
   <cc:Work>
    <dc:type rdf:resource="http://purl.org/dc/dcmitype/StillImage"/>
    <dc:date>2026-08-25T23:48:40.929215</dc:date>
    <dc:format>image/svg+xml</dc:format>
    <dc:creator>
     <cc:Agent>
      <dc:title>Matplotlib v3.11.1, https://matplotlib.org/</dc:title>
     </cc:Agent>
    </dc:creator>
   </cc:Work>
  </rdf:RDF>
 </metadata>
 <defs>
  <style type="text/css">*{stroke-linejoin: round; stroke-linecap: butt}</style>
 </defs>
 <g id="figure_1">
  <g id="patch_1">
   <path d="M 0 360 
L 648 360 
L 648 0 
L 0 0 
z
" style="fill: #ffffff"/>
  </g>
  <g id="axes_1">
   <g id="patch_2">
    <path d="M 54.442344 317.877656 
L 593.88 317.877656 
L 593.88 26.16 
L 54.442344 26.16 
z
" style="fill: #ffffff"/>
   </g>
   <g id="matplotlib.axis_1">
    <g id="xtick_1">
     <g id="line2d_1">
      <defs>
       <path id="m0538973268" d="M 0 0 
L 0 3.5 
" style="stroke: #000000; stroke-width: 0.8"/>
      </defs>
      <g>
       <use xlink:href="#m0538973268" x="78.962237" y="317.877656" style="stroke: #000000; stroke-width: 0.8"/>
      </g>
     </g>
     <g id="text_1">
      <!-- 0 -->
      <g transform="translate(75.780987 332.475312) scale(0.1 -0.1)">
       <defs>
        <path id="DejaVuSans-13" d="M 2034 4250 
Q 1547 4250 1301 3770 
Q 1056 3291 1056 2328 
Q 1056 1369 1301 889 
Q 1547 409 2034 409 
Q 2525 409 2770 889 
Q 3016 1369 3016 2328 
Q 3016 3291 2770 3770 
Q 2525 4250 2034 4250 
z
M 2034 4750 
Q 2819 4750 3233 4129 
Q 3647 3509 3647 2328 
Q 3647 1150 3233 529 
Q 2819 -91 2034 -91 
Q 1250 -91 836 529 
Q 422 1150 422 2328 
Q 422 3509 836 4129 
Q 1250 4750 2034 4750 
z
" transform="scale(0.015625)"/>
       </defs>
       <use xlink:href="#DejaVuSans-13"/>
      </g>
     </g>
    </g>
    <g id="xtick_2">
     <g id="line2d_2">
      <g>
       <use xlink:href="#m0538973268" x="160.695215" y="317.877656" style="stroke: #000000; stroke-width: 0.8"/>
      </g>
     </g>
     <g id="text_2">
      <!-- 50 -->
      <g transform="translate(154.332715 332.475312) scale(0.1 -0.1)">
       <defs>
        <path id="DejaVuSans-18" d="M 691 4666 
L 3169 4666 
L 3169 4134 
L 1269 4134 
L 1269 2991 
Q 1406 3038 1543 3061 
Q 1681 3084 1819 3084 
Q 2600 3084 3056 2656 
Q 3513 2228 3513 1497 
Q 3513 744 3044 326 
Q 2575 -91 1722 -91 
Q 1428 -91 1123 -41 
Q 819 9 494 109 
L 494 744 
Q 775 591 1075 516 
Q 1375 441 1709 441 
Q 2250 441 2565 725 
Q 2881 1009 2881 1497 
Q 2881 1984 2565 2268 
Q 2250 2553 1709 2553 
Q 1456 2553 1204 2497 
Q 953 2441 691 2322 
L 691 4666 
z
" transform="scale(0.015625)"/>
       </defs>
       <use xlink:href="#DejaVuSans-18"/>
       <use xlink:href="#DejaVuSans-13" transform="translate(63.625 0)"/>
      </g>
     </g>
    </g>
    <g id="xtick_3">
     <g id="line2d_3">
      <g>
       <use xlink:href="#m0538973268" x="242.428194" y="317.877656" style="stroke: #000000; stroke-width: 0.8"/>
      </g>
     </g>
     <g id="text_3">
      <!-- 100 -->
      <g transform="translate(232.884444 332.475312) scale(0.1 -0.1)">
       <defs>
        <path id="DejaVuSans-14" d="M 794 531 
L 1825 531 
L 1825 4091 
L 703 3866 
L 703 4441 
L 1819 4666 
L 2450 4666 
L 2450 531 
L 3481 531 
L 3481 0 
L 794 0 
L 794 531 
z
" transform="scale(0.015625)"/>
       </defs>
       <use xlink:href="#DejaVuSans-14"/>
       <use xlink:href="#DejaVuSans-13" transform="translate(63.625 0)"/>
       <use xlink:href="#DejaVuSans-13" transform="translate(127.25 0)"/>
      </g>
     </g>
    </g>
    <g id="xtick_4">
     <g id="line2d_4">
      <g>
       <use xlink:href="#m0538973268" x="324.161172" y="317.877656" style="stroke: #000000; stroke-width: 0.8"/>
      </g>
     </g>
     <g id="text_4">
      <!-- 150 -->
      <g transform="translate(314.617422 332.475312) scale(0.1 -0.1)">
       <use xlink:href="#DejaVuSans-14"/>
       <use xlink:href="#DejaVuSans-18" transform="translate(63.625 0)"/>
       <use xlink:href="#DejaVuSans-13" transform="translate(127.25 0)"/>
      </g>
     </g>
    </g>
    <g id="xtick_5">
     <g id="line2d_5">
      <g>
       <use xlink:href="#m0538973268" x="405.89415" y="317.877656" style="stroke: #000000; stroke-width: 0.8"/>
      </g>
     </g>
     <g id="text_5">
      <!-- 200 -->
      <g transform="translate(396.3504 332.475312) scale(0.1 -0.1)">
       <defs>
        <path id="DejaVuSans-15" d="M 1228 531 
L 3431 531 
L 3431 0 
L 469 0 
L 469 531 
Q 828 903 1448 1529 
Q 2069 2156 2228 2338 
Q 2531 2678 2651 2914 
Q 2772 3150 2772 3378 
Q 2772 3750 2511 3984 
Q 2250 4219 1831 4219 
Q 1534 4219 1204 4116 
Q 875 4013 500 3803 
L 500 4441 
Q 881 4594 1212 4672 
Q 1544 4750 1819 4750 
Q 2544 4750 2975 4387 
Q 3406 4025 3406 3419 
Q 3406 3131 3298 2873 
Q 3191 2616 2906 2266 
Q 2828 2175 2409 1742 
Q 1991 1309 1228 531 
z
" transform="scale(0.015625)"/>
       </defs>
       <use xlink:href="#DejaVuSans-15"/>
       <use xlink:href="#DejaVuSans-13" transform="translate(63.625 0)"/>
       <use xlink:href="#DejaVuSans-13" transform="translate(127.25 0)"/>
      </g>
     </g>
    </g>
    <g id="xtick_6">
     <g id="line2d_6">
      <g>
       <use xlink:href="#m0538973268" x="487.627128" y="317.877656" style="stroke: #000000; stroke-width: 0.8"/>
      </g>
     </g>
     <g id="text_6">
      <!-- 250 -->
      <g transform="translate(478.083378 332.475312) scale(0.1 -0.1)">
       <use xlink:href="#DejaVuSans-15"/>
       <use xlink:href="#DejaVuSans-18" transform="translate(63.625 0)"/>
       <use xlink:href="#DejaVuSans-13" transform="translate(127.25 0)"/>
      </g>
     </g>
    </g>
    <g id="xtick_7">
     <g id="line2d_7">
      <g>
       <use xlink:href="#m0538973268" x="569.360107" y="317.877656" style="stroke: #000000; stroke-width: 0.8"/>
      </g>
     </g>
     <g id="text_7">
      <!-- 300 -->
      <g transform="translate(559.816357 332.475312) scale(0.1 -0.1)">
       <defs>
        <path id="DejaVuSans-16" d="M 2597 2516 
Q 3050 2419 3304 2112 
Q 3559 1806 3559 1356 
Q 3559 666 3084 287 
Q 2609 -91 1734 -91 
Q 1441 -91 1130 -33 
Q 819 25 488 141 
L 488 750 
Q 750 597 1062 519 
Q 1375 441 1716 441 
Q 2309 441 2620 675 
Q 2931 909 2931 1356 
Q 2931 1769 2642 2001 
Q 2353 2234 1838 2234 
L 1294 2234 
L 1294 2753 
L 1863 2753 
Q 2328 2753 2575 2939 
Q 2822 3125 2822 3475 
Q 2822 3834 2567 4026 
Q 2313 4219 1838 4219 
Q 1578 4219 1281 4162 
Q 984 4106 628 3988 
L 628 4550 
Q 988 4650 1302 4700 
Q 1616 4750 1894 4750 
Q 2613 4750 3031 4423 
Q 3450 4097 3450 3541 
Q 3450 3153 3228 2886 
Q 3006 2619 2597 2516 
z
" transform="scale(0.015625)"/>
       </defs>
       <use xlink:href="#DejaVuSans-16"/>
       <use xlink:href="#DejaVuSans-13" transform="translate(63.625 0)"/>
       <use xlink:href="#DejaVuSans-13" transform="translate(127.25 0)"/>
      </g>
     </g>
    </g>
    <g id="text_8">
     <!-- epoch -->
     <g transform="translate(308.933047 346.476094) scale(0.1 -0.1)">
      <defs>
       <path id="DejaVuSans-48" d="M 3597 1894 
L 3597 1613 
L 953 1613 
Q 991 1019 1311 708 
Q 1631 397 2203 397 
Q 2534 397 2845 478 
Q 3156 559 3463 722 
L 3463 178 
Q 3153 47 2828 -22 
Q 2503 -91 2169 -91 
Q 1331 -91 842 396 
Q 353 884 353 1716 
Q 353 2575 817 3079 
Q 1281 3584 2069 3584 
Q 2775 3584 3186 3129 
Q 3597 2675 3597 1894 
z
M 3022 2063 
Q 3016 2534 2758 2815 
Q 2500 3097 2075 3097 
Q 1594 3097 1305 2825 
Q 1016 2553 972 2059 
L 3022 2063 
z
" transform="scale(0.015625)"/>
       <path id="DejaVuSans-53" d="M 1159 525 
L 1159 -1331 
L 581 -1331 
L 581 3500 
L 1159 3500 
L 1159 2969 
Q 1341 3281 1617 3432 
Q 1894 3584 2278 3584 
Q 2916 3584 3314 3078 
Q 3713 2572 3713 1747 
Q 3713 922 3314 415 
Q 2916 -91 2278 -91 
Q 1894 -91 1617 61 
Q 1341 213 1159 525 
z
M 3116 1747 
Q 3116 2381 2855 2742 
Q 2594 3103 2138 3103 
Q 1681 3103 1420 2742 
Q 1159 2381 1159 1747 
Q 1159 1113 1420 752 
Q 1681 391 2138 391 
Q 2594 391 2855 752 
Q 3116 1113 3116 1747 
z
" transform="scale(0.015625)"/>
       <path id="DejaVuSans-52" d="M 1959 3097 
Q 1497 3097 1228 2736 
Q 959 2375 959 1747 
Q 959 1119 1226 758 
Q 1494 397 1959 397 
Q 2419 397 2687 759 
Q 2956 1122 2956 1747 
Q 2956 2369 2687 2733 
Q 2419 3097 1959 3097 
z
M 1959 3584 
Q 2709 3584 3137 3096 
Q 3566 2609 3566 1747 
Q 3566 888 3137 398 
Q 2709 -91 1959 -91 
Q 1206 -91 779 398 
Q 353 888 353 1747 
Q 353 2609 779 3096 
Q 1206 3584 1959 3584 
z
" transform="scale(0.015625)"/>
       <path id="DejaVuSans-46" d="M 3122 3366 
L 3122 2828 
Q 2878 2963 2633 3030 
Q 2388 3097 2138 3097 
Q 1578 3097 1268 2742 
Q 959 2388 959 1747 
Q 959 1106 1268 751 
Q 1578 397 2138 397 
Q 2388 397 2633 464 
Q 2878 531 3122 666 
L 3122 134 
Q 2881 22 2623 -34 
Q 2366 -91 2075 -91 
Q 1284 -91 818 406 
Q 353 903 353 1747 
Q 353 2603 823 3093 
Q 1294 3584 2113 3584 
Q 2378 3584 2631 3529 
Q 2884 3475 3122 3366 
z
" transform="scale(0.015625)"/>
       <path id="DejaVuSans-4b" d="M 3513 2113 
L 3513 0 
L 2938 0 
L 2938 2094 
Q 2938 2591 2744 2837 
Q 2550 3084 2163 3084 
Q 1697 3084 1428 2787 
Q 1159 2491 1159 1978 
L 1159 0 
L 581 0 
L 581 4863 
L 1159 4863 
L 1159 2956 
Q 1366 3272 1645 3428 
Q 1925 3584 2291 3584 
Q 2894 3584 3203 3211 
Q 3513 2838 3513 2113 
z
" transform="scale(0.015625)"/>
      </defs>
      <use xlink:href="#DejaVuSans-48"/>
      <use xlink:href="#DejaVuSans-53" transform="translate(61.53125 0)"/>
      <use xlink:href="#DejaVuSans-52" transform="translate(125.015625 0)"/>
      <use xlink:href="#DejaVuSans-46" transform="translate(186.203125 0)"/>
      <use xlink:href="#DejaVuSans-4b" transform="translate(241.1875 0)"/>
     </g>
    </g>
   </g>
   <g id="matplotlib.axis_2">
    <g id="ytick_1">
     <g id="line2d_8">
      <defs>
       <path id="m67b1f52767" d="M 0 0 
L -3.5 0 
" style="stroke: #000000; stroke-width: 0.8"/>
      </defs>
      <g>
       <use xlink:href="#m67b1f52767" x="54.442344" y="304.617763" style="stroke: #000000; stroke-width: 0.8"/>
      </g>
     </g>
     <g id="text_9">
      <!-- 0.00 -->
      <g style="fill: #2ca02c" transform="translate(25.176719 308.416591) scale(0.1 -0.1)">
       <defs>
        <path id="DejaVuSans-11" d="M 684 794 
L 1344 794 
L 1344 0 
L 684 0 
L 684 794 
z
" transform="scale(0.015625)"/>
       </defs>
       <use xlink:href="#DejaVuSans-13"/>
       <use xlink:href="#DejaVuSans-11" transform="translate(63.625 0)"/>
       <use xlink:href="#DejaVuSans-13" transform="translate(95.40625 0)"/>
       <use xlink:href="#DejaVuSans-13" transform="translate(159.03125 0)"/>
      </g>
     </g>
    </g>
    <g id="ytick_2">
     <g id="line2d_9">
      <g>
       <use xlink:href="#m67b1f52767" x="54.442344" y="240.530473" style="stroke: #000000; stroke-width: 0.8"/>
      </g>
     </g>
     <g id="text_10">
      <!-- 0.05 -->
      <g style="fill: #2ca02c" transform="translate(25.176719 244.329302) scale(0.1 -0.1)">
       <use xlink:href="#DejaVuSans-13"/>
       <use xlink:href="#DejaVuSans-11" transform="translate(63.625 0)"/>
       <use xlink:href="#DejaVuSans-13" transform="translate(95.40625 0)"/>
       <use xlink:href="#DejaVuSans-18" transform="translate(159.03125 0)"/>
      </g>
     </g>
    </g>
    <g id="ytick_3">
     <g id="line2d_10">
      <g>
       <use xlink:href="#m67b1f52767" x="54.442344" y="176.443184" style="stroke: #000000; stroke-width: 0.8"/>
      </g>
     </g>
     <g id="text_11">
      <!-- 0.10 -->
      <g style="fill: #2ca02c" transform="translate(25.176719 180.242012) scale(0.1 -0.1)">
       <use xlink:href="#DejaVuSans-13"/>
       <use xlink:href="#DejaVuSans-11" transform="translate(63.625 0)"/>
       <use xlink:href="#DejaVuSans-14" transform="translate(95.40625 0)"/>
       <use xlink:href="#DejaVuSans-13" transform="translate(159.03125 0)"/>
      </g>
     </g>
    </g>
    <g id="ytick_4">
     <g id="line2d_11">
      <g>
       <use xlink:href="#m67b1f52767" x="54.442344" y="112.355895" style="stroke: #000000; stroke-width: 0.8"/>
      </g>
     </g>
     <g id="text_12">
      <!-- 0.15 -->
      <g style="fill: #2ca02c" transform="translate(25.176719 116.154723) scale(0.1 -0.1)">
       <use xlink:href="#DejaVuSans-13"/>
       <use xlink:href="#DejaVuSans-11" transform="translate(63.625 0)"/>
       <use xlink:href="#DejaVuSans-14" transform="translate(95.40625 0)"/>
       <use xlink:href="#DejaVuSans-18" transform="translate(159.03125 0)"/>
      </g>
     </g>
    </g>
    <g id="ytick_5">
     <g id="line2d_12">
      <g>
       <use xlink:href="#m67b1f52767" x="54.442344" y="48.268605" style="stroke: #000000; stroke-width: 0.8"/>
      </g>
     </g>
     <g id="text_13">
      <!-- 0.20 -->
      <g style="fill: #2ca02c" transform="translate(25.176719 52.067434) scale(0.1 -0.1)">
       <use xlink:href="#DejaVuSans-13"/>
       <use xlink:href="#DejaVuSans-11" transform="translate(63.625 0)"/>
       <use xlink:href="#DejaVuSans-15" transform="translate(95.40625 0)"/>
       <use xlink:href="#DejaVuSans-13" transform="translate(159.03125 0)"/>
      </g>
     </g>
    </g>
    <g id="text_14">
     <!-- clip_frac -->
     <g style="fill: #2ca02c" transform="translate(18.774375 192.849297) rotate(-90) scale(0.1 -0.1)">
      <defs>
       <path id="DejaVuSans-4f" d="M 603 4863 
L 1178 4863 
L 1178 0 
L 603 0 
L 603 4863 
z
" transform="scale(0.015625)"/>
       <path id="DejaVuSans-4c" d="M 603 3500 
L 1178 3500 
L 1178 0 
L 603 0 
L 603 3500 
z
M 603 4863 
L 1178 4863 
L 1178 4134 
L 603 4134 
L 603 4863 
z
" transform="scale(0.015625)"/>
       <path id="DejaVuSans-42" d="M 3263 -1063 
L 3263 -1509 
L -63 -1509 
L -63 -1063 
L 3263 -1063 
z
" transform="scale(0.015625)"/>
       <path id="DejaVuSans-49" d="M 2375 4863 
L 2375 4384 
L 1825 4384 
Q 1516 4384 1395 4259 
Q 1275 4134 1275 3809 
L 1275 3500 
L 2222 3500 
L 2222 3053 
L 1275 3053 
L 1275 0 
L 697 0 
L 697 3053 
L 147 3053 
L 147 3500 
L 697 3500 
L 697 3744 
Q 697 4328 969 4595 
Q 1241 4863 1831 4863 
L 2375 4863 
z
" transform="scale(0.015625)"/>
       <path id="DejaVuSans-55" d="M 2631 2963 
Q 2534 3019 2420 3045 
Q 2306 3072 2169 3072 
Q 1681 3072 1420 2755 
Q 1159 2438 1159 1844 
L 1159 0 
L 581 0 
L 581 3500 
L 1159 3500 
L 1159 2956 
Q 1341 3275 1631 3429 
Q 1922 3584 2338 3584 
Q 2397 3584 2469 3576 
Q 2541 3569 2628 3553 
L 2631 2963 
z
" transform="scale(0.015625)"/>
       <path id="DejaVuSans-44" d="M 2194 1759 
Q 1497 1759 1228 1600 
Q 959 1441 959 1056 
Q 959 750 1161 570 
Q 1363 391 1709 391 
Q 2188 391 2477 730 
Q 2766 1069 2766 1631 
L 2766 1759 
L 2194 1759 
z
M 3341 1997 
L 3341 0 
L 2766 0 
L 2766 531 
Q 2569 213 2275 61 
Q 1981 -91 1556 -91 
Q 1019 -91 701 211 
Q 384 513 384 1019 
Q 384 1609 779 1909 
Q 1175 2209 1959 2209 
L 2766 2209 
L 2766 2266 
Q 2766 2663 2505 2880 
Q 2244 3097 1772 3097 
Q 1472 3097 1187 3025 
Q 903 2953 641 2809 
L 641 3341 
Q 956 3463 1253 3523 
Q 1550 3584 1831 3584 
Q 2591 3584 2966 3190 
Q 3341 2797 3341 1997 
z
" transform="scale(0.015625)"/>
      </defs>
      <use xlink:href="#DejaVuSans-46"/>
      <use xlink:href="#DejaVuSans-4f" transform="translate(54.984375 0)"/>
      <use xlink:href="#DejaVuSans-4c" transform="translate(82.765625 0)"/>
      <use xlink:href="#DejaVuSans-53" transform="translate(110.546875 0)"/>
      <use xlink:href="#DejaVuSans-42" transform="translate(174.03125 0)"/>
      <use xlink:href="#DejaVuSans-49" transform="translate(224.03125 0)"/>
      <use xlink:href="#DejaVuSans-55" transform="translate(259.234375 0)"/>
      <use xlink:href="#DejaVuSans-44" transform="translate(300.34375 0)"/>
      <use xlink:href="#DejaVuSans-46" transform="translate(361.625 0)"/>
     </g>
    </g>
   </g>
   <g id="line2d_13">
    <path d="M 78.962237 304.617763 
L 87.135535 191.452493 
L 95.308833 154.648029 
L 103.482131 128.18556 
L 111.655429 100.646458 
L 119.828726 91.989509 
L 128.002024 88.333652 
L 136.175322 85.171953 
L 144.34862 79.240348 
L 152.521918 70.058143 
L 160.695215 69.194352 
L 168.868513 67.115073 
L 177.041811 66.198043 
L 185.215109 64.643549 
L 193.388407 64.822104 
L 201.561705 63.697074 
L 209.735002 63.573018 
L 217.9083 63.229583 
L 226.081598 63.720398 
L 234.254896 63.137394 
L 242.428194 62.328458 
L 250.601491 63.788792 
L 258.774789 62.603613 
L 266.948087 61.853587 
L 275.121385 63.545168 
L 283.294683 62.055014 
L 291.467981 65.075492 
L 299.641278 63.284812 
L 307.814576 60.528841 
L 315.987874 60.31716 
L 324.161172 60.393704 
L 332.33447 57.464905 
L 340.507768 58.636246 
L 348.681065 60.426042 
L 356.854363 59.305952 
L 365.027661 58.193693 
L 373.200959 58.554292 
L 381.374257 58.952638 
L 389.547554 59.032055 
L 397.720852 56.647032 
L 405.89415 54.597649 
L 414.067448 54.161199 
L 422.240746 54.138644 
L 430.414044 54.68191 
L 438.587341 52.81138 
L 446.760639 44.249888 
L 454.933937 44.392328 
L 463.107235 39.665132 
L 471.280533 40.174802 
L 479.45383 39.419893 
L 487.627128 40.470032 
L 495.800426 41.773876 
L 503.973724 41.667435 
L 512.147022 40.535083 
L 520.32032 41.10419 
L 528.493617 39.844869 
L 536.666915 41.172883 
L 544.840213 40.936639 
L 553.013511 41.100433 
L 561.186809 40.373788 
L 569.360107 40.813428 
" clip-path="url(#pe0e6fe7505)" style="fill: none; stroke: #2ca02c; stroke-width: 1.5; stroke-linecap: square"/>
    <defs>
     <path id="m02035ee5da" d="M 0 1.5 
C 0.397805 1.5 0.77937 1.341951 1.06066 1.06066 
C 1.341951 0.77937 1.5 0.397805 1.5 0 
C 1.5 -0.397805 1.341951 -0.77937 1.06066 -1.06066 
C 0.77937 -1.341951 0.397805 -1.5 0 -1.5 
C -0.397805 -1.5 -0.77937 -1.341951 -1.06066 -1.06066 
C -1.341951 -0.77937 -1.5 -0.397805 -1.5 0 
C -1.5 0.397805 -1.341951 0.77937 -1.06066 1.06066 
C -0.77937 1.341951 -0.397805 1.5 0 1.5 
z
" style="stroke: #2ca02c"/>
    </defs>
    <g clip-path="url(#pe0e6fe7505)">
     <use xlink:href="#m02035ee5da" x="78.962237" y="304.617763" style="fill: #2ca02c; stroke: #2ca02c"/>
     <use xlink:href="#m02035ee5da" x="87.135535" y="191.452493" style="fill: #2ca02c; stroke: #2ca02c"/>
     <use xlink:href="#m02035ee5da" x="95.308833" y="154.648029" style="fill: #2ca02c; stroke: #2ca02c"/>
     <use xlink:href="#m02035ee5da" x="103.482131" y="128.18556" style="fill: #2ca02c; stroke: #2ca02c"/>
     <use xlink:href="#m02035ee5da" x="111.655429" y="100.646458" style="fill: #2ca02c; stroke: #2ca02c"/>
     <use xlink:href="#m02035ee5da" x="119.828726" y="91.989509" style="fill: #2ca02c; stroke: #2ca02c"/>
     <use xlink:href="#m02035ee5da" x="128.002024" y="88.333652" style="fill: #2ca02c; stroke: #2ca02c"/>
     <use xlink:href="#m02035ee5da" x="136.175322" y="85.171953" style="fill: #2ca02c; stroke: #2ca02c"/>
     <use xlink:href="#m02035ee5da" x="144.34862" y="79.240348" style="fill: #2ca02c; stroke: #2ca02c"/>
     <use xlink:href="#m02035ee5da" x="152.521918" y="70.058143" style="fill: #2ca02c; stroke: #2ca02c"/>
     <use xlink:href="#m02035ee5da" x="160.695215" y="69.194352" style="fill: #2ca02c; stroke: #2ca02c"/>
     <use xlink:href="#m02035ee5da" x="168.868513" y="67.115073" style="fill: #2ca02c; stroke: #2ca02c"/>
     <use xlink:href="#m02035ee5da" x="177.041811" y="66.198043" style="fill: #2ca02c; stroke: #2ca02c"/>
     <use xlink:href="#m02035ee5da" x="185.215109" y="64.643549" style="fill: #2ca02c; stroke: #2ca02c"/>
     <use xlink:href="#m02035ee5da" x="193.388407" y="64.822104" style="fill: #2ca02c; stroke: #2ca02c"/>
     <use xlink:href="#m02035ee5da" x="201.561705" y="63.697074" style="fill: #2ca02c; stroke: #2ca02c"/>
     <use xlink:href="#m02035ee5da" x="209.735002" y="63.573018" style="fill: #2ca02c; stroke: #2ca02c"/>
     <use xlink:href="#m02035ee5da" x="217.9083" y="63.229583" style="fill: #2ca02c; stroke: #2ca02c"/>
     <use xlink:href="#m02035ee5da" x="226.081598" y="63.720398" style="fill: #2ca02c; stroke: #2ca02c"/>
     <use xlink:href="#m02035ee5da" x="234.254896" y="63.137394" style="fill: #2ca02c; stroke: #2ca02c"/>
     <use xlink:href="#m02035ee5da" x="242.428194" y="62.328458" style="fill: #2ca02c; stroke: #2ca02c"/>
     <use xlink:href="#m02035ee5da" x="250.601491" y="63.788792" style="fill: #2ca02c; stroke: #2ca02c"/>
     <use xlink:href="#m02035ee5da" x="258.774789" y="62.603613" style="fill: #2ca02c; stroke: #2ca02c"/>
     <use xlink:href="#m02035ee5da" x="266.948087" y="61.853587" style="fill: #2ca02c; stroke: #2ca02c"/>
     <use xlink:href="#m02035ee5da" x="275.121385" y="63.545168" style="fill: #2ca02c; stroke: #2ca02c"/>
     <use xlink:href="#m02035ee5da" x="283.294683" y="62.055014" style="fill: #2ca02c; stroke: #2ca02c"/>
     <use xlink:href="#m02035ee5da" x="291.467981" y="65.075492" style="fill: #2ca02c; stroke: #2ca02c"/>
     <use xlink:href="#m02035ee5da" x="299.641278" y="63.284812" style="fill: #2ca02c; stroke: #2ca02c"/>
     <use xlink:href="#m02035ee5da" x="307.814576" y="60.528841" style="fill: #2ca02c; stroke: #2ca02c"/>
     <use xlink:href="#m02035ee5da" x="315.987874" y="60.31716" style="fill: #2ca02c; stroke: #2ca02c"/>
     <use xlink:href="#m02035ee5da" x="324.161172" y="60.393704" style="fill: #2ca02c; stroke: #2ca02c"/>
     <use xlink:href="#m02035ee5da" x="332.33447" y="57.464905" style="fill: #2ca02c; stroke: #2ca02c"/>
     <use xlink:href="#m02035ee5da" x="340.507768" y="58.636246" style="fill: #2ca02c; stroke: #2ca02c"/>
     <use xlink:href="#m02035ee5da" x="348.681065" y="60.426042" style="fill: #2ca02c; stroke: #2ca02c"/>
     <use xlink:href="#m02035ee5da" x="356.854363" y="59.305952" style="fill: #2ca02c; stroke: #2ca02c"/>
     <use xlink:href="#m02035ee5da" x="365.027661" y="58.193693" style="fill: #2ca02c; stroke: #2ca02c"/>
     <use xlink:href="#m02035ee5da" x="373.200959" y="58.554292" style="fill: #2ca02c; stroke: #2ca02c"/>
     <use xlink:href="#m02035ee5da" x="381.374257" y="58.952638" style="fill: #2ca02c; stroke: #2ca02c"/>
     <use xlink:href="#m02035ee5da" x="389.547554" y="59.032055" style="fill: #2ca02c; stroke: #2ca02c"/>
     <use xlink:href="#m02035ee5da" x="397.720852" y="56.647032" style="fill: #2ca02c; stroke: #2ca02c"/>
     <use xlink:href="#m02035ee5da" x="405.89415" y="54.597649" style="fill: #2ca02c; stroke: #2ca02c"/>
     <use xlink:href="#m02035ee5da" x="414.067448" y="54.161199" style="fill: #2ca02c; stroke: #2ca02c"/>
     <use xlink:href="#m02035ee5da" x="422.240746" y="54.138644" style="fill: #2ca02c; stroke: #2ca02c"/>
     <use xlink:href="#m02035ee5da" x="430.414044" y="54.68191" style="fill: #2ca02c; stroke: #2ca02c"/>
     <use xlink:href="#m02035ee5da" x="438.587341" y="52.81138" style="fill: #2ca02c; stroke: #2ca02c"/>
     <use xlink:href="#m02035ee5da" x="446.760639" y="44.249888" style="fill: #2ca02c; stroke: #2ca02c"/>
     <use xlink:href="#m02035ee5da" x="454.933937" y="44.392328" style="fill: #2ca02c; stroke: #2ca02c"/>
     <use xlink:href="#m02035ee5da" x="463.107235" y="39.665132" style="fill: #2ca02c; stroke: #2ca02c"/>
     <use xlink:href="#m02035ee5da" x="471.280533" y="40.174802" style="fill: #2ca02c; stroke: #2ca02c"/>
     <use xlink:href="#m02035ee5da" x="479.45383" y="39.419893" style="fill: #2ca02c; stroke: #2ca02c"/>
     <use xlink:href="#m02035ee5da" x="487.627128" y="40.470032" style="fill: #2ca02c; stroke: #2ca02c"/>
     <use xlink:href="#m02035ee5da" x="495.800426" y="41.773876" style="fill: #2ca02c; stroke: #2ca02c"/>
     <use xlink:href="#m02035ee5da" x="503.973724" y="41.667435" style="fill: #2ca02c; stroke: #2ca02c"/>
     <use xlink:href="#m02035ee5da" x="512.147022" y="40.535083" style="fill: #2ca02c; stroke: #2ca02c"/>
     <use xlink:href="#m02035ee5da" x="520.32032" y="41.10419" style="fill: #2ca02c; stroke: #2ca02c"/>
     <use xlink:href="#m02035ee5da" x="528.493617" y="39.844869" style="fill: #2ca02c; stroke: #2ca02c"/>
     <use xlink:href="#m02035ee5da" x="536.666915" y="41.172883" style="fill: #2ca02c; stroke: #2ca02c"/>
     <use xlink:href="#m02035ee5da" x="544.840213" y="40.936639" style="fill: #2ca02c; stroke: #2ca02c"/>
     <use xlink:href="#m02035ee5da" x="553.013511" y="41.100433" style="fill: #2ca02c; stroke: #2ca02c"/>
     <use xlink:href="#m02035ee5da" x="561.186809" y="40.373788" style="fill: #2ca02c; stroke: #2ca02c"/>
     <use xlink:href="#m02035ee5da" x="569.360107" y="40.813428" style="fill: #2ca02c; stroke: #2ca02c"/>
    </g>
   </g>
   <g id="patch_3">
    <path d="M 54.442344 317.877656 
L 54.442344 26.16 
" style="fill: none; stroke: #000000; stroke-width: 0.8; stroke-linejoin: miter; stroke-linecap: square"/>
   </g>
   <g id="patch_4">
    <path d="M 593.88 317.877656 
L 593.88 26.16 
" style="fill: none; stroke: #000000; stroke-width: 0.8; stroke-linejoin: miter; stroke-linecap: square"/>
   </g>
   <g id="patch_5">
    <path d="M 54.442344 317.877656 
L 593.88 317.877656 
" style="fill: none; stroke: #000000; stroke-width: 0.8; stroke-linejoin: miter; stroke-linecap: square"/>
   </g>
   <g id="patch_6">
    <path d="M 54.442344 26.16 
L 593.88 26.16 
" style="fill: none; stroke: #000000; stroke-width: 0.8; stroke-linejoin: miter; stroke-linecap: square"/>
   </g>
  </g>
  <g id="axes_2">
   <g id="matplotlib.axis_3">
    <g id="ytick_6">
     <g id="line2d_14">
      <defs>
       <path id="m613ec2e975" d="M 0 0 
L 3.5 0 
" style="stroke: #000000; stroke-width: 0.8"/>
      </defs>
      <g>
       <use xlink:href="#m613ec2e975" x="593.88" y="288.406377" style="stroke: #000000; stroke-width: 0.8"/>
      </g>
     </g>
     <g id="text_15">
      <!-- 0.34 -->
      <g style="fill: #d62728" transform="translate(600.88 292.205205) scale(0.1 -0.1)">
       <defs>
        <path id="DejaVuSans-17" d="M 2419 4116 
L 825 1625 
L 2419 1625 
L 2419 4116 
z
M 2253 4666 
L 3047 4666 
L 3047 1625 
L 3713 1625 
L 3713 1100 
L 3047 1100 
L 3047 0 
L 2419 0 
L 2419 1100 
L 313 1100 
L 313 1709 
L 2253 4666 
z
" transform="scale(0.015625)"/>
       </defs>
       <use xlink:href="#DejaVuSans-13"/>
       <use xlink:href="#DejaVuSans-11" transform="translate(63.625 0)"/>
       <use xlink:href="#DejaVuSans-16" transform="translate(95.40625 0)"/>
       <use xlink:href="#DejaVuSans-17" transform="translate(159.03125 0)"/>
      </g>
     </g>
    </g>
    <g id="ytick_7">
     <g id="line2d_15">
      <g>
       <use xlink:href="#m613ec2e975" x="593.88" y="225.267116" style="stroke: #000000; stroke-width: 0.8"/>
      </g>
     </g>
     <g id="text_16">
      <!-- 0.36 -->
      <g style="fill: #d62728" transform="translate(600.88 229.065944) scale(0.1 -0.1)">
       <defs>
        <path id="DejaVuSans-19" d="M 2113 2584 
Q 1688 2584 1439 2293 
Q 1191 2003 1191 1497 
Q 1191 994 1439 701 
Q 1688 409 2113 409 
Q 2538 409 2786 701 
Q 3034 994 3034 1497 
Q 3034 2003 2786 2293 
Q 2538 2584 2113 2584 
z
M 3366 4563 
L 3366 3988 
Q 3128 4100 2886 4159 
Q 2644 4219 2406 4219 
Q 1781 4219 1451 3797 
Q 1122 3375 1075 2522 
Q 1259 2794 1537 2939 
Q 1816 3084 2150 3084 
Q 2853 3084 3261 2657 
Q 3669 2231 3669 1497 
Q 3669 778 3244 343 
Q 2819 -91 2113 -91 
Q 1303 -91 875 529 
Q 447 1150 447 2328 
Q 447 3434 972 4092 
Q 1497 4750 2381 4750 
Q 2619 4750 2861 4703 
Q 3103 4656 3366 4563 
z
" transform="scale(0.015625)"/>
       </defs>
       <use xlink:href="#DejaVuSans-13"/>
       <use xlink:href="#DejaVuSans-11" transform="translate(63.625 0)"/>
       <use xlink:href="#DejaVuSans-16" transform="translate(95.40625 0)"/>
       <use xlink:href="#DejaVuSans-19" transform="translate(159.03125 0)"/>
      </g>
     </g>
    </g>
    <g id="ytick_8">
     <g id="line2d_16">
      <g>
       <use xlink:href="#m613ec2e975" x="593.88" y="162.127855" style="stroke: #000000; stroke-width: 0.8"/>
      </g>
     </g>
     <g id="text_17">
      <!-- 0.38 -->
      <g style="fill: #d62728" transform="translate(600.88 165.926683) scale(0.1 -0.1)">
       <defs>
        <path id="DejaVuSans-1b" d="M 2034 2216 
Q 1584 2216 1326 1975 
Q 1069 1734 1069 1313 
Q 1069 891 1326 650 
Q 1584 409 2034 409 
Q 2484 409 2743 651 
Q 3003 894 3003 1313 
Q 3003 1734 2745 1975 
Q 2488 2216 2034 2216 
z
M 1403 2484 
Q 997 2584 770 2862 
Q 544 3141 544 3541 
Q 544 4100 942 4425 
Q 1341 4750 2034 4750 
Q 2731 4750 3128 4425 
Q 3525 4100 3525 3541 
Q 3525 3141 3298 2862 
Q 3072 2584 2669 2484 
Q 3125 2378 3379 2068 
Q 3634 1759 3634 1313 
Q 3634 634 3220 271 
Q 2806 -91 2034 -91 
Q 1263 -91 848 271 
Q 434 634 434 1313 
Q 434 1759 690 2068 
Q 947 2378 1403 2484 
z
M 1172 3481 
Q 1172 3119 1398 2916 
Q 1625 2713 2034 2713 
Q 2441 2713 2670 2916 
Q 2900 3119 2900 3481 
Q 2900 3844 2670 4047 
Q 2441 4250 2034 4250 
Q 1625 4250 1398 4047 
Q 1172 3844 1172 3481 
z
" transform="scale(0.015625)"/>
       </defs>
       <use xlink:href="#DejaVuSans-13"/>
       <use xlink:href="#DejaVuSans-11" transform="translate(63.625 0)"/>
       <use xlink:href="#DejaVuSans-16" transform="translate(95.40625 0)"/>
       <use xlink:href="#DejaVuSans-1b" transform="translate(159.03125 0)"/>
      </g>
     </g>
    </g>
    <g id="ytick_9">
     <g id="line2d_17">
      <g>
       <use xlink:href="#m613ec2e975" x="593.88" y="98.988594" style="stroke: #000000; stroke-width: 0.8"/>
      </g>
     </g>
     <g id="text_18">
      <!-- 0.40 -->
      <g style="fill: #d62728" transform="translate(600.88 102.787422) scale(0.1 -0.1)">
       <use xlink:href="#DejaVuSans-13"/>
       <use xlink:href="#DejaVuSans-11" transform="translate(63.625 0)"/>
       <use xlink:href="#DejaVuSans-17" transform="translate(95.40625 0)"/>
       <use xlink:href="#DejaVuSans-13" transform="translate(159.03125 0)"/>
      </g>
     </g>
    </g>
    <g id="ytick_10">
     <g id="line2d_18">
      <g>
       <use xlink:href="#m613ec2e975" x="593.88" y="35.849333" style="stroke: #000000; stroke-width: 0.8"/>
      </g>
     </g>
     <g id="text_19">
      <!-- 0.42 -->
      <g style="fill: #d62728" transform="translate(600.88 39.648161) scale(0.1 -0.1)">
       <use xlink:href="#DejaVuSans-13"/>
       <use xlink:href="#DejaVuSans-11" transform="translate(63.625 0)"/>
       <use xlink:href="#DejaVuSans-17" transform="translate(95.40625 0)"/>
       <use xlink:href="#DejaVuSans-15" transform="translate(159.03125 0)"/>
      </g>
     </g>
    </g>
    <g id="text_20">
     <!-- entropy -->
     <g style="fill: #d62728" transform="translate(634.743281 191.362578) rotate(-90) scale(0.1 -0.1)">
      <defs>
       <path id="DejaVuSans-51" d="M 3513 2113 
L 3513 0 
L 2938 0 
L 2938 2094 
Q 2938 2591 2744 2837 
Q 2550 3084 2163 3084 
Q 1697 3084 1428 2787 
Q 1159 2491 1159 1978 
L 1159 0 
L 581 0 
L 581 3500 
L 1159 3500 
L 1159 2956 
Q 1366 3272 1645 3428 
Q 1925 3584 2291 3584 
Q 2894 3584 3203 3211 
Q 3513 2838 3513 2113 
z
" transform="scale(0.015625)"/>
       <path id="DejaVuSans-57" d="M 1172 4494 
L 1172 3500 
L 2356 3500 
L 2356 3053 
L 1172 3053 
L 1172 1153 
Q 1172 725 1289 603 
Q 1406 481 1766 481 
L 2356 481 
L 2356 0 
L 1766 0 
Q 1100 0 847 248 
Q 594 497 594 1153 
L 594 3053 
L 172 3053 
L 172 3500 
L 594 3500 
L 594 4494 
L 1172 4494 
z
" transform="scale(0.015625)"/>
       <path id="DejaVuSans-5c" d="M 2059 -325 
Q 1816 -950 1584 -1140 
Q 1353 -1331 966 -1331 
L 506 -1331 
L 506 -850 
L 844 -850 
Q 1081 -850 1212 -737 
Q 1344 -625 1503 -206 
L 1606 56 
L 191 3500 
L 800 3500 
L 1894 763 
L 2988 3500 
L 3597 3500 
L 2059 -325 
z
" transform="scale(0.015625)"/>
      </defs>
      <use xlink:href="#DejaVuSans-48"/>
      <use xlink:href="#DejaVuSans-51" transform="translate(61.53125 0)"/>
      <use xlink:href="#DejaVuSans-57" transform="translate(124.90625 0)"/>
      <use xlink:href="#DejaVuSans-55" transform="translate(164.109375 0)"/>
      <use xlink:href="#DejaVuSans-52" transform="translate(203.015625 0)"/>
      <use xlink:href="#DejaVuSans-53" transform="translate(264.203125 0)"/>
      <use xlink:href="#DejaVuSans-5c" transform="translate(327.6875 0)"/>
     </g>
    </g>
   </g>
   <g id="line2d_19">
    <path d="M 78.962237 39.419893 
L 87.135535 198.60124 
L 95.308833 244.442025 
L 103.482131 255.515258 
L 111.655429 254.174057 
L 119.828726 259.383154 
L 128.002024 265.256999 
L 136.175322 261.697539 
L 144.34862 270.371012 
L 152.521918 272.378122 
L 160.695215 274.227088 
L 168.868513 279.059057 
L 177.041811 291.626524 
L 185.215109 291.386491 
L 193.388407 294.92244 
L 201.561705 301.830828 
L 209.735002 298.55996 
L 217.9083 297.438487 
L 226.081598 297.520156 
L 234.254896 303.601569 
L 242.428194 299.115638 
L 250.601491 296.003085 
L 258.774789 300.743278 
L 266.948087 304.234173 
L 275.121385 303.154452 
L 283.294683 303.608115 
L 291.467981 300.685678 
L 299.641278 301.563676 
L 307.814576 299.330395 
L 315.987874 304.617763 
L 324.161172 298.519831 
L 332.33447 298.856705 
L 340.507768 296.19042 
L 348.681065 298.890434 
L 356.854363 303.589784 
L 365.027661 301.123287 
L 373.200959 294.261059 
L 381.374257 299.935166 
L 389.547554 298.71146 
L 397.720852 289.809011 
L 405.89415 289.99169 
L 414.067448 293.917033 
L 422.240746 275.624738 
L 430.414044 273.29844 
L 438.587341 270.56584 
L 446.760639 260.834104 
L 454.933937 256.503789 
L 463.107235 254.566753 
L 471.280533 264.715762 
L 479.45383 255.246892 
L 487.627128 246.147539 
L 495.800426 253.398357 
L 503.973724 253.847903 
L 512.147022 254.422082 
L 520.32032 246.107834 
L 528.493617 247.446383 
L 536.666915 226.329811 
L 544.840213 227.433564 
L 553.013511 225.680308 
L 561.186809 237.721931 
L 569.360107 236.289005 
" clip-path="url(#pe0e6fe7505)" style="fill: none; stroke: #d62728; stroke-width: 1.5; stroke-linecap: square"/>
    <defs>
     <path id="m086dc4b097" d="M -1.5 1.5 
L 1.5 1.5 
L 1.5 -1.5 
L -1.5 -1.5 
z
" style="stroke: #d62728; stroke-linejoin: miter"/>
    </defs>
    <g clip-path="url(#pe0e6fe7505)">
     <use xlink:href="#m086dc4b097" x="78.962237" y="39.419893" style="fill: #d62728; stroke: #d62728; stroke-linejoin: miter"/>
     <use xlink:href="#m086dc4b097" x="87.135535" y="198.60124" style="fill: #d62728; stroke: #d62728; stroke-linejoin: miter"/>
     <use xlink:href="#m086dc4b097" x="95.308833" y="244.442025" style="fill: #d62728; stroke: #d62728; stroke-linejoin: miter"/>
     <use xlink:href="#m086dc4b097" x="103.482131" y="255.515258" style="fill: #d62728; stroke: #d62728; stroke-linejoin: miter"/>
     <use xlink:href="#m086dc4b097" x="111.655429" y="254.174057" style="fill: #d62728; stroke: #d62728; stroke-linejoin: miter"/>
     <use xlink:href="#m086dc4b097" x="119.828726" y="259.383154" style="fill: #d62728; stroke: #d62728; stroke-linejoin: miter"/>
     <use xlink:href="#m086dc4b097" x="128.002024" y="265.256999" style="fill: #d62728; stroke: #d62728; stroke-linejoin: miter"/>
     <use xlink:href="#m086dc4b097" x="136.175322" y="261.697539" style="fill: #d62728; stroke: #d62728; stroke-linejoin: miter"/>
     <use xlink:href="#m086dc4b097" x="144.34862" y="270.371012" style="fill: #d62728; stroke: #d62728; stroke-linejoin: miter"/>
     <use xlink:href="#m086dc4b097" x="152.521918" y="272.378122" style="fill: #d62728; stroke: #d62728; stroke-linejoin: miter"/>
     <use xlink:href="#m086dc4b097" x="160.695215" y="274.227088" style="fill: #d62728; stroke: #d62728; stroke-linejoin: miter"/>
     <use xlink:href="#m086dc4b097" x="168.868513" y="279.059057" style="fill: #d62728; stroke: #d62728; stroke-linejoin: miter"/>
     <use xlink:href="#m086dc4b097" x="177.041811" y="291.626524" style="fill: #d62728; stroke: #d62728; stroke-linejoin: miter"/>
     <use xlink:href="#m086dc4b097" x="185.215109" y="291.386491" style="fill: #d62728; stroke: #d62728; stroke-linejoin: miter"/>
     <use xlink:href="#m086dc4b097" x="193.388407" y="294.92244" style="fill: #d62728; stroke: #d62728; stroke-linejoin: miter"/>
     <use xlink:href="#m086dc4b097" x="201.561705" y="301.830828" style="fill: #d62728; stroke: #d62728; stroke-linejoin: miter"/>
     <use xlink:href="#m086dc4b097" x="209.735002" y="298.55996" style="fill: #d62728; stroke: #d62728; stroke-linejoin: miter"/>
     <use xlink:href="#m086dc4b097" x="217.9083" y="297.438487" style="fill: #d62728; stroke: #d62728; stroke-linejoin: miter"/>
     <use xlink:href="#m086dc4b097" x="226.081598" y="297.520156" style="fill: #d62728; stroke: #d62728; stroke-linejoin: miter"/>
     <use xlink:href="#m086dc4b097" x="234.254896" y="303.601569" style="fill: #d62728; stroke: #d62728; stroke-linejoin: miter"/>
     <use xlink:href="#m086dc4b097" x="242.428194" y="299.115638" style="fill: #d62728; stroke: #d62728; stroke-linejoin: miter"/>
     <use xlink:href="#m086dc4b097" x="250.601491" y="296.003085" style="fill: #d62728; stroke: #d62728; stroke-linejoin: miter"/>
     <use xlink:href="#m086dc4b097" x="258.774789" y="300.743278" style="fill: #d62728; stroke: #d62728; stroke-linejoin: miter"/>
     <use xlink:href="#m086dc4b097" x="266.948087" y="304.234173" style="fill: #d62728; stroke: #d62728; stroke-linejoin: miter"/>
     <use xlink:href="#m086dc4b097" x="275.121385" y="303.154452" style="fill: #d62728; stroke: #d62728; stroke-linejoin: miter"/>
     <use xlink:href="#m086dc4b097" x="283.294683" y="303.608115" style="fill: #d62728; stroke: #d62728; stroke-linejoin: miter"/>
     <use xlink:href="#m086dc4b097" x="291.467981" y="300.685678" style="fill: #d62728; stroke: #d62728; stroke-linejoin: miter"/>
     <use xlink:href="#m086dc4b097" x="299.641278" y="301.563676" style="fill: #d62728; stroke: #d62728; stroke-linejoin: miter"/>
     <use xlink:href="#m086dc4b097" x="307.814576" y="299.330395" style="fill: #d62728; stroke: #d62728; stroke-linejoin: miter"/>
     <use xlink:href="#m086dc4b097" x="315.987874" y="304.617763" style="fill: #d62728; stroke: #d62728; stroke-linejoin: miter"/>
     <use xlink:href="#m086dc4b097" x="324.161172" y="298.519831" style="fill: #d62728; stroke: #d62728; stroke-linejoin: miter"/>
     <use xlink:href="#m086dc4b097" x="332.33447" y="298.856705" style="fill: #d62728; stroke: #d62728; stroke-linejoin: miter"/>
     <use xlink:href="#m086dc4b097" x="340.507768" y="296.19042" style="fill: #d62728; stroke: #d62728; stroke-linejoin: miter"/>
     <use xlink:href="#m086dc4b097" x="348.681065" y="298.890434" style="fill: #d62728; stroke: #d62728; stroke-linejoin: miter"/>
     <use xlink:href="#m086dc4b097" x="356.854363" y="303.589784" style="fill: #d62728; stroke: #d62728; stroke-linejoin: miter"/>
     <use xlink:href="#m086dc4b097" x="365.027661" y="301.123287" style="fill: #d62728; stroke: #d62728; stroke-linejoin: miter"/>
     <use xlink:href="#m086dc4b097" x="373.200959" y="294.261059" style="fill: #d62728; stroke: #d62728; stroke-linejoin: miter"/>
     <use xlink:href="#m086dc4b097" x="381.374257" y="299.935166" style="fill: #d62728; stroke: #d62728; stroke-linejoin: miter"/>
     <use xlink:href="#m086dc4b097" x="389.547554" y="298.71146" style="fill: #d62728; stroke: #d62728; stroke-linejoin: miter"/>
     <use xlink:href="#m086dc4b097" x="397.720852" y="289.809011" style="fill: #d62728; stroke: #d62728; stroke-linejoin: miter"/>
     <use xlink:href="#m086dc4b097" x="405.89415" y="289.99169" style="fill: #d62728; stroke: #d62728; stroke-linejoin: miter"/>
     <use xlink:href="#m086dc4b097" x="414.067448" y="293.917033" style="fill: #d62728; stroke: #d62728; stroke-linejoin: miter"/>
     <use xlink:href="#m086dc4b097" x="422.240746" y="275.624738" style="fill: #d62728; stroke: #d62728; stroke-linejoin: miter"/>
     <use xlink:href="#m086dc4b097" x="430.414044" y="273.29844" style="fill: #d62728; stroke: #d62728; stroke-linejoin: miter"/>
     <use xlink:href="#m086dc4b097" x="438.587341" y="270.56584" style="fill: #d62728; stroke: #d62728; stroke-linejoin: miter"/>
     <use xlink:href="#m086dc4b097" x="446.760639" y="260.834104" style="fill: #d62728; stroke: #d62728; stroke-linejoin: miter"/>
     <use xlink:href="#m086dc4b097" x="454.933937" y="256.503789" style="fill: #d62728; stroke: #d62728; stroke-linejoin: miter"/>
     <use xlink:href="#m086dc4b097" x="463.107235" y="254.566753" style="fill: #d62728; stroke: #d62728; stroke-linejoin: miter"/>
     <use xlink:href="#m086dc4b097" x="471.280533" y="264.715762" style="fill: #d62728; stroke: #d62728; stroke-linejoin: miter"/>
     <use xlink:href="#m086dc4b097" x="479.45383" y="255.246892" style="fill: #d62728; stroke: #d62728; stroke-linejoin: miter"/>
     <use xlink:href="#m086dc4b097" x="487.627128" y="246.147539" style="fill: #d62728; stroke: #d62728; stroke-linejoin: miter"/>
     <use xlink:href="#m086dc4b097" x="495.800426" y="253.398357" style="fill: #d62728; stroke: #d62728; stroke-linejoin: miter"/>
     <use xlink:href="#m086dc4b097" x="503.973724" y="253.847903" style="fill: #d62728; stroke: #d62728; stroke-linejoin: miter"/>
     <use xlink:href="#m086dc4b097" x="512.147022" y="254.422082" style="fill: #d62728; stroke: #d62728; stroke-linejoin: miter"/>
     <use xlink:href="#m086dc4b097" x="520.32032" y="246.107834" style="fill: #d62728; stroke: #d62728; stroke-linejoin: miter"/>
     <use xlink:href="#m086dc4b097" x="528.493617" y="247.446383" style="fill: #d62728; stroke: #d62728; stroke-linejoin: miter"/>
     <use xlink:href="#m086dc4b097" x="536.666915" y="226.329811" style="fill: #d62728; stroke: #d62728; stroke-linejoin: miter"/>
     <use xlink:href="#m086dc4b097" x="544.840213" y="227.433564" style="fill: #d62728; stroke: #d62728; stroke-linejoin: miter"/>
     <use xlink:href="#m086dc4b097" x="553.013511" y="225.680308" style="fill: #d62728; stroke: #d62728; stroke-linejoin: miter"/>
     <use xlink:href="#m086dc4b097" x="561.186809" y="237.721931" style="fill: #d62728; stroke: #d62728; stroke-linejoin: miter"/>
     <use xlink:href="#m086dc4b097" x="569.360107" y="236.289005" style="fill: #d62728; stroke: #d62728; stroke-linejoin: miter"/>
    </g>
   </g>
   <g id="patch_7">
    <path d="M 54.442344 317.877656 
L 54.442344 26.16 
" style="fill: none; stroke: #000000; stroke-width: 0.8; stroke-linejoin: miter; stroke-linecap: square"/>
   </g>
   <g id="patch_8">
    <path d="M 593.88 317.877656 
L 593.88 26.16 
" style="fill: none; stroke: #000000; stroke-width: 0.8; stroke-linejoin: miter; stroke-linecap: square"/>
   </g>
   <g id="patch_9">
    <path d="M 54.442344 317.877656 
L 593.88 317.877656 
" style="fill: none; stroke: #000000; stroke-width: 0.8; stroke-linejoin: miter; stroke-linecap: square"/>
   </g>
   <g id="patch_10">
    <path d="M 54.442344 26.16 
L 593.88 26.16 
" style="fill: none; stroke: #000000; stroke-width: 0.8; stroke-linejoin: miter; stroke-linecap: square"/>
   </g>
   <g id="text_21">
    <!-- Training diagnostics (clip_frac &amp; entropy) vs. fixed-D PPO epochs (clip_eps=0.3) -->
    <g transform="translate(85.057422 20.16) scale(0.12 -0.12)">
     <defs>
      <path id="DejaVuSans-37" d="M -19 4666 
L 3928 4666 
L 3928 4134 
L 2272 4134 
L 2272 0 
L 1638 0 
L 1638 4134 
L -19 4134 
L -19 4666 
z
" transform="scale(0.015625)"/>
      <path id="DejaVuSans-4a" d="M 2906 1791 
Q 2906 2416 2648 2759 
Q 2391 3103 1925 3103 
Q 1463 3103 1205 2759 
Q 947 2416 947 1791 
Q 947 1169 1205 825 
Q 1463 481 1925 481 
Q 2391 481 2648 825 
Q 2906 1169 2906 1791 
z
M 3481 434 
Q 3481 -459 3084 -895 
Q 2688 -1331 1869 -1331 
Q 1566 -1331 1297 -1286 
Q 1028 -1241 775 -1147 
L 775 -588 
Q 1028 -725 1275 -790 
Q 1522 -856 1778 -856 
Q 2344 -856 2625 -561 
Q 2906 -266 2906 331 
L 2906 616 
Q 2728 306 2450 153 
Q 2172 0 1784 0 
Q 1141 0 747 490 
Q 353 981 353 1791 
Q 353 2603 747 3093 
Q 1141 3584 1784 3584 
Q 2172 3584 2450 3431 
Q 2728 3278 2906 2969 
L 2906 3500 
L 3481 3500 
L 3481 434 
z
" transform="scale(0.015625)"/>
      <path id="DejaVuSans-3" transform="scale(0.015625)"/>
      <path id="DejaVuSans-47" d="M 2906 2969 
L 2906 4863 
L 3481 4863 
L 3481 0 
L 2906 0 
L 2906 525 
Q 2725 213 2448 61 
Q 2172 -91 1784 -91 
Q 1150 -91 751 415 
Q 353 922 353 1747 
Q 353 2572 751 3078 
Q 1150 3584 1784 3584 
Q 2172 3584 2448 3432 
Q 2725 3281 2906 2969 
z
M 947 1747 
Q 947 1113 1208 752 
Q 1469 391 1925 391 
Q 2381 391 2643 752 
Q 2906 1113 2906 1747 
Q 2906 2381 2643 2742 
Q 2381 3103 1925 3103 
Q 1469 3103 1208 2742 
Q 947 2381 947 1747 
z
" transform="scale(0.015625)"/>
      <path id="DejaVuSans-56" d="M 2834 3397 
L 2834 2853 
Q 2591 2978 2328 3040 
Q 2066 3103 1784 3103 
Q 1356 3103 1142 2972 
Q 928 2841 928 2578 
Q 928 2378 1081 2264 
Q 1234 2150 1697 2047 
L 1894 2003 
Q 2506 1872 2764 1633 
Q 3022 1394 3022 966 
Q 3022 478 2636 193 
Q 2250 -91 1575 -91 
Q 1294 -91 989 -36 
Q 684 19 347 128 
L 347 722 
Q 666 556 975 473 
Q 1284 391 1588 391 
Q 1994 391 2212 530 
Q 2431 669 2431 922 
Q 2431 1156 2273 1281 
Q 2116 1406 1581 1522 
L 1381 1569 
Q 847 1681 609 1914 
Q 372 2147 372 2553 
Q 372 3047 722 3315 
Q 1072 3584 1716 3584 
Q 2034 3584 2315 3537 
Q 2597 3491 2834 3397 
z
" transform="scale(0.015625)"/>
      <path id="DejaVuSans-b" d="M 1984 4856 
Q 1566 4138 1362 3434 
Q 1159 2731 1159 2009 
Q 1159 1288 1364 580 
Q 1569 -128 1984 -844 
L 1484 -844 
Q 1016 -109 783 600 
Q 550 1309 550 2009 
Q 550 2706 781 3412 
Q 1013 4119 1484 4856 
L 1984 4856 
z
" transform="scale(0.015625)"/>
      <path id="DejaVuSans-9" d="M 1556 2509 
Q 1272 2256 1139 2004 
Q 1006 1753 1006 1478 
Q 1006 1022 1337 719 
Q 1669 416 2169 416 
Q 2466 416 2725 514 
Q 2984 613 3213 813 
L 1556 2509 
z
M 1997 2859 
L 3584 1234 
Q 3769 1513 3872 1830 
Q 3975 2147 3994 2503 
L 4575 2503 
Q 4538 2091 4375 1687 
Q 4213 1284 3922 891 
L 4794 0 
L 4006 0 
L 3559 459 
Q 3234 181 2878 45 
Q 2522 -91 2113 -91 
Q 1359 -91 881 339 
Q 403 769 403 1441 
Q 403 1841 612 2192 
Q 822 2544 1241 2853 
Q 1091 3050 1012 3245 
Q 934 3441 934 3628 
Q 934 4134 1281 4442 
Q 1628 4750 2203 4750 
Q 2463 4750 2720 4694 
Q 2978 4638 3244 4525 
L 3244 3956 
Q 2972 4103 2725 4179 
Q 2478 4256 2266 4256 
Q 1938 4256 1733 4082 
Q 1528 3909 1528 3634 
Q 1528 3475 1620 3314 
Q 1713 3153 1997 2859 
z
" transform="scale(0.015625)"/>
      <path id="DejaVuSans-c" d="M 513 4856 
L 1013 4856 
Q 1481 4119 1714 3412 
Q 1947 2706 1947 2009 
Q 1947 1309 1714 600 
Q 1481 -109 1013 -844 
L 513 -844 
Q 928 -128 1133 580 
Q 1338 1288 1338 2009 
Q 1338 2731 1133 3434 
Q 928 4138 513 4856 
z
" transform="scale(0.015625)"/>
      <path id="DejaVuSans-59" d="M 191 3500 
L 800 3500 
L 1894 563 
L 2988 3500 
L 3597 3500 
L 2284 0 
L 1503 0 
L 191 3500 
z
" transform="scale(0.015625)"/>
      <path id="DejaVuSans-13af" d="M 3431 3500 
L 3431 0 
L 2853 0 
L 2853 3053 
L 1275 3053 
L 1275 0 
L 697 0 
L 697 3053 
L 147 3053 
L 147 3500 
L 697 3500 
L 697 3744 
Q 697 4316 967 4589 
Q 1238 4863 1797 4863 
L 2375 4863 
L 2375 4384 
L 1825 4384 
Q 1516 4384 1395 4259 
Q 1275 4134 1275 3809 
L 1275 3500 
L 3431 3500 
z
M 2853 4856 
L 3431 4856 
L 3431 4128 
L 2853 4128 
L 2853 4856 
z
" transform="scale(0.015625)"/>
      <path id="DejaVuSans-5b" d="M 3513 3500 
L 2247 1797 
L 3578 0 
L 2900 0 
L 1881 1375 
L 863 0 
L 184 0 
L 1544 1831 
L 300 3500 
L 978 3500 
L 1906 2253 
L 2834 3500 
L 3513 3500 
z
" transform="scale(0.015625)"/>
      <path id="DejaVuSans-10" d="M 313 2009 
L 1997 2009 
L 1997 1497 
L 313 1497 
L 313 2009 
z
" transform="scale(0.015625)"/>
      <path id="DejaVuSans-27" d="M 1259 4147 
L 1259 519 
L 2022 519 
Q 2988 519 3436 956 
Q 3884 1394 3884 2338 
Q 3884 3275 3436 3711 
Q 2988 4147 2022 4147 
L 1259 4147 
z
M 628 4666 
L 1925 4666 
Q 3281 4666 3915 4102 
Q 4550 3538 4550 2338 
Q 4550 1131 3912 565 
Q 3275 0 1925 0 
L 628 0 
L 628 4666 
z
" transform="scale(0.015625)"/>
      <path id="DejaVuSans-33" d="M 1259 4147 
L 1259 2394 
L 2053 2394 
Q 2494 2394 2734 2622 
Q 2975 2850 2975 3272 
Q 2975 3691 2734 3919 
Q 2494 4147 2053 4147 
L 1259 4147 
z
M 628 4666 
L 2053 4666 
Q 2838 4666 3239 4311 
Q 3641 3956 3641 3272 
Q 3641 2581 3239 2228 
Q 2838 1875 2053 1875 
L 1259 1875 
L 1259 0 
L 628 0 
L 628 4666 
z
" transform="scale(0.015625)"/>
      <path id="DejaVuSans-32" d="M 2522 4238 
Q 1834 4238 1429 3725 
Q 1025 3213 1025 2328 
Q 1025 1447 1429 934 
Q 1834 422 2522 422 
Q 3209 422 3611 934 
Q 4013 1447 4013 2328 
Q 4013 3213 3611 3725 
Q 3209 4238 2522 4238 
z
M 2522 4750 
Q 3503 4750 4090 4092 
Q 4678 3434 4678 2328 
Q 4678 1225 4090 567 
Q 3503 -91 2522 -91 
Q 1538 -91 948 565 
Q 359 1222 359 2328 
Q 359 3434 948 4092 
Q 1538 4750 2522 4750 
z
" transform="scale(0.015625)"/>
      <path id="DejaVuSans-20" d="M 678 2906 
L 4684 2906 
L 4684 2381 
L 678 2381 
L 678 2906 
z
M 678 1631 
L 4684 1631 
L 4684 1100 
L 678 1100 
L 678 1631 
z
" transform="scale(0.015625)"/>
     </defs>
     <use xlink:href="#DejaVuSans-37"/>
     <use xlink:href="#DejaVuSans-55" transform="translate(46.375 0)"/>
     <use xlink:href="#DejaVuSans-44" transform="translate(87.484375 0)"/>
     <use xlink:href="#DejaVuSans-4c" transform="translate(148.765625 0)"/>
     <use xlink:href="#DejaVuSans-51" transform="translate(176.546875 0)"/>
     <use xlink:href="#DejaVuSans-4c" transform="translate(239.921875 0)"/>
     <use xlink:href="#DejaVuSans-51" transform="translate(267.703125 0)"/>
     <use xlink:href="#DejaVuSans-4a" transform="translate(331.078125 0)"/>
     <use xlink:href="#DejaVuSans-3" transform="translate(394.5625 0)"/>
     <use xlink:href="#DejaVuSans-47" transform="translate(426.34375 0)"/>
     <use xlink:href="#DejaVuSans-4c" transform="translate(489.828125 0)"/>
     <use xlink:href="#DejaVuSans-44" transform="translate(517.609375 0)"/>
     <use xlink:href="#DejaVuSans-4a" transform="translate(578.890625 0)"/>
     <use xlink:href="#DejaVuSans-51" transform="translate(642.375 0)"/>
     <use xlink:href="#DejaVuSans-52" transform="translate(705.75 0)"/>
     <use xlink:href="#DejaVuSans-56" transform="translate(766.9375 0)"/>
     <use xlink:href="#DejaVuSans-57" transform="translate(819.03125 0)"/>
     <use xlink:href="#DejaVuSans-4c" transform="translate(858.234375 0)"/>
     <use xlink:href="#DejaVuSans-46" transform="translate(886.015625 0)"/>
     <use xlink:href="#DejaVuSans-56" transform="translate(941 0)"/>
     <use xlink:href="#DejaVuSans-3" transform="translate(993.09375 0)"/>
     <use xlink:href="#DejaVuSans-b" transform="translate(1024.875 0)"/>
     <use xlink:href="#DejaVuSans-46" transform="translate(1063.890625 0)"/>
     <use xlink:href="#DejaVuSans-4f" transform="translate(1118.875 0)"/>
     <use xlink:href="#DejaVuSans-4c" transform="translate(1146.65625 0)"/>
     <use xlink:href="#DejaVuSans-53" transform="translate(1174.4375 0)"/>
     <use xlink:href="#DejaVuSans-42" transform="translate(1237.921875 0)"/>
     <use xlink:href="#DejaVuSans-49" transform="translate(1287.921875 0)"/>
     <use xlink:href="#DejaVuSans-55" transform="translate(1323.125 0)"/>
     <use xlink:href="#DejaVuSans-44" transform="translate(1364.234375 0)"/>
     <use xlink:href="#DejaVuSans-46" transform="translate(1425.515625 0)"/>
     <use xlink:href="#DejaVuSans-3" transform="translate(1480.5 0)"/>
     <use xlink:href="#DejaVuSans-9" transform="translate(1512.28125 0)"/>
     <use xlink:href="#DejaVuSans-3" transform="translate(1590.265625 0)"/>
     <use xlink:href="#DejaVuSans-48" transform="translate(1622.046875 0)"/>
     <use xlink:href="#DejaVuSans-51" transform="translate(1683.578125 0)"/>
     <use xlink:href="#DejaVuSans-57" transform="translate(1746.953125 0)"/>
     <use xlink:href="#DejaVuSans-55" transform="translate(1786.15625 0)"/>
     <use xlink:href="#DejaVuSans-52" transform="translate(1825.0625 0)"/>
     <use xlink:href="#DejaVuSans-53" transform="translate(1886.25 0)"/>
     <use xlink:href="#DejaVuSans-5c" transform="translate(1949.734375 0)"/>
     <use xlink:href="#DejaVuSans-c" transform="translate(2008.921875 0)"/>
     <use xlink:href="#DejaVuSans-3" transform="translate(2047.9375 0)"/>
     <use xlink:href="#DejaVuSans-59" transform="translate(2079.71875 0)"/>
     <use xlink:href="#DejaVuSans-56" transform="translate(2138.90625 0)"/>
     <use xlink:href="#DejaVuSans-11" transform="translate(2191 0)"/>
     <use xlink:href="#DejaVuSans-3" transform="translate(2222.78125 0)"/>
     <use xlink:href="#DejaVuSans-13af" transform="translate(2254.5625 0)"/>
     <use xlink:href="#DejaVuSans-5b" transform="translate(2317.546875 0)"/>
     <use xlink:href="#DejaVuSans-48" transform="translate(2373.65625 0)"/>
     <use xlink:href="#DejaVuSans-47" transform="translate(2435.1875 0)"/>
     <use xlink:href="#DejaVuSans-10" transform="translate(2498.671875 0)"/>
     <use xlink:href="#DejaVuSans-27" transform="translate(2534.75 0)"/>
     <use xlink:href="#DejaVuSans-3" transform="translate(2611.75 0)"/>
     <use xlink:href="#DejaVuSans-33" transform="translate(2643.53125 0)"/>
     <use xlink:href="#DejaVuSans-33" transform="translate(2703.828125 0)"/>
     <use xlink:href="#DejaVuSans-32" transform="translate(2764.125 0)"/>
     <use xlink:href="#DejaVuSans-3" transform="translate(2842.84375 0)"/>
     <use xlink:href="#DejaVuSans-48" transform="translate(2874.625 0)"/>
     <use xlink:href="#DejaVuSans-53" transform="translate(2936.15625 0)"/>
     <use xlink:href="#DejaVuSans-52" transform="translate(2999.640625 0)"/>
     <use xlink:href="#DejaVuSans-46" transform="translate(3060.828125 0)"/>
     <use xlink:href="#DejaVuSans-4b" transform="translate(3115.8125 0)"/>
     <use xlink:href="#DejaVuSans-56" transform="translate(3179.1875 0)"/>
     <use xlink:href="#DejaVuSans-3" transform="translate(3231.28125 0)"/>
     <use xlink:href="#DejaVuSans-b" transform="translate(3263.0625 0)"/>
     <use xlink:href="#DejaVuSans-46" transform="translate(3302.078125 0)"/>
     <use xlink:href="#DejaVuSans-4f" transform="translate(3357.0625 0)"/>
     <use xlink:href="#DejaVuSans-4c" transform="translate(3384.84375 0)"/>
     <use xlink:href="#DejaVuSans-53" transform="translate(3412.625 0)"/>
     <use xlink:href="#DejaVuSans-42" transform="translate(3476.109375 0)"/>
     <use xlink:href="#DejaVuSans-48" transform="translate(3526.109375 0)"/>
     <use xlink:href="#DejaVuSans-53" transform="translate(3587.640625 0)"/>
     <use xlink:href="#DejaVuSans-56" transform="translate(3651.125 0)"/>
     <use xlink:href="#DejaVuSans-20" transform="translate(3703.21875 0)"/>
     <use xlink:href="#DejaVuSans-13" transform="translate(3787.015625 0)"/>
     <use xlink:href="#DejaVuSans-11" transform="translate(3850.640625 0)"/>
     <use xlink:href="#DejaVuSans-16" transform="translate(3882.421875 0)"/>
     <use xlink:href="#DejaVuSans-c" transform="translate(3946.046875 0)"/>
    </g>
   </g>
  </g>
 </g>
 <defs>
  <clipPath id="pe0e6fe7505">
   <rect x="54.442344" y="26.16" width="539.437656" height="291.717656"/>
  </clipPath>
 </defs>
</svg>
