<?xml version="1.0" encoding="utf-8" standalone="no"?>
<!DOCTYPE svg PUBLIC "-//W3C//DTD SVG 1.1//EN"
  "http://www.w3.org/Graphics/SVG/1.1/DTD/svg11.dtd">
<svg xmlns:xlink="http://www.w3.org/1999/xlink" width="648pt" height="360pt" viewBox="0 0 648 360" xmlns="http://www.w3.org/2000/svg" version="1.1">
 <metadata>
  <rdf:RDF xmlns:dc="http://purl.org/dc/elements/1.1/" xmlns:cc="http://creativecommons.org/ns#" xmlns:rdf="http://www.w3.org/1999/02/22-rdf-syntax-ns#">
   <cc:Work>
    <dc:type rdf:resource="http://purl.org/dc/dcmitype/StillImage"/>
    <dc:date>2026-09-17T14:04:24.657047</dc:date>
    <dc:format>image/svg+xml</dc:format>
    <dc:creator>
     <cc:Agent>
      <dc:title>Matplotlib v3.11.1, https://matplotlib.org/</dc:title>
     </cc:Agent>
    </dc:creator>
   </cc:Work>
  </rdf:RDF>
 </metadata>
 <defs>
  <style type="text/css">*{stroke-linejoin: round; stroke-linecap: butt}</style>
 </defs>
 <g id="figure_1">
  <g id="patch_1">
   <path d="M 0 360 
L 648 360 
L 648 0 
L 0 0 
z
" style="fill: #ffffff"/>
  </g>
  <g id="axes_1">
   <g id="patch_2">
    <path d="M 47.64 317.877656 
L 637.2 317.877656 
L 637.2 26.16 
L 47.64 26.16 
z
" style="fill: #ffffff"/>
   </g>
   <g id="FillBetweenPolyCollection_1">
    <defs>
     <path id="mffbfa26272" d="M 74.438182 -157.005072 
L 74.438182 -144.905867 
L 83.370909 -127.783851 
L 92.303636 -141.02973 
L 101.236364 -146.568754 
L 110.169091 -141.02973 
L 119.101818 -140.476452 
L 128.034545 -130.537607 
L 136.967273 -146.568754 
L 145.9 -145.460051 
L 154.832727 -146.568754 
L 163.765455 -147.6779 
L 172.698182 -147.123272 
L 181.630909 -146.568754 
L 190.563636 -146.568754 
L 199.496364 -145.460051 
L 208.429091 -146.014347 
L 217.361818 -146.014347 
L 226.294545 -146.568754 
L 235.227273 -146.014347 
L 244.16 -147.6779 
L 253.092727 -146.568754 
L 262.025455 -148.787486 
L 270.958182 -147.6779 
L 279.890909 -145.460051 
L 288.823636 -149.342443 
L 297.756364 -147.123272 
L 306.689091 -148.787486 
L 315.621818 -148.787486 
L 324.554545 -146.568754 
L 333.487273 -148.787486 
L 342.42 -148.787486 
L 351.352727 -154.341927 
L 360.285455 -128.884974 
L 369.218182 -148.787486 
L 378.150909 -128.884974 
L 387.083636 -148.232638 
L 396.016364 -153.230179 
L 404.949091 -129.435726 
L 413.881818 -148.787486 
L 422.814545 -128.884974 
L 431.747273 -128.334348 
L 440.68 -148.787486 
L 449.612727 -151.007967 
L 458.545455 -148.787486 
L 467.478182 -148.787486 
L 476.410909 -151.563359 
L 485.343636 -128.334348 
L 494.276364 -154.897961 
L 503.209091 -149.342443 
L 512.141818 -148.787486 
L 521.074545 -152.674465 
L 530.007273 -152.118858 
L 538.94 -128.884974 
L 547.872727 -128.334348 
L 556.805455 -148.232638 
L 565.738182 -151.007967 
L 574.670909 -152.118858 
L 583.603636 -127.783851 
L 592.536364 -152.674465 
L 601.469091 -152.118858 
L 610.401818 -147.6779 
L 610.401818 -159.842994 
L 610.401818 -159.842994 
L 601.469091 -164.377964 
L 592.536364 -164.944348 
L 583.603636 -139.345368 
L 574.670909 -164.377964 
L 565.738182 -163.244872 
L 556.805455 -160.410247 
L 547.872727 -139.916861 
L 538.94 -140.488227 
L 530.007273 -164.377964 
L 521.074545 -164.944348 
L 512.141818 -160.97739 
L 503.209091 -161.544424 
L 494.276364 -167.208815 
L 485.343636 -139.916861 
L 476.410909 -163.811472 
L 467.478182 -160.97739 
L 458.545455 -160.97739 
L 449.612727 -163.244872 
L 440.68 -160.97739 
L 431.747273 -139.916861 
L 422.814545 -140.488227 
L 413.881818 -160.97739 
L 404.949091 -141.059466 
L 396.016364 -165.510625 
L 387.083636 -160.410247 
L 378.150909 -140.488227 
L 369.218182 -160.97739 
L 360.285455 -140.488227 
L 351.352727 -166.642858 
L 342.42 -160.97739 
L 333.487273 -160.97739 
L 324.554545 -158.708157 
L 315.621818 -160.97739 
L 306.689091 -160.97739 
L 297.756364 -159.275631 
L 288.823636 -161.544424 
L 279.890909 -157.572878 
L 270.958182 -159.842994 
L 262.025455 -160.97739 
L 253.092727 -158.708157 
L 244.16 -159.842994 
L 235.227273 -158.140573 
L 226.294545 -158.708157 
L 217.361818 -158.140573 
L 208.429091 -158.140573 
L 199.496364 -157.572878 
L 190.563636 -158.708157 
L 181.630909 -158.708157 
L 172.698182 -159.275631 
L 163.765455 -159.842994 
L 154.832727 -158.708157 
L 145.9 -157.572878 
L 136.967273 -158.708157 
L 128.034545 -142.201566 
L 119.101818 -152.458559 
L 110.169091 -153.027272 
L 101.236364 -158.708157 
L 92.303636 -153.027272 
L 83.370909 -139.345368 
L 74.438182 -157.005072 
z
" style="stroke: #1f77b4; stroke-opacity: 0.12"/>
    </defs>
    <g clip-path="url(#p430591e1dd)">
     <use xlink:href="#mffbfa26272" x="0" y="360" style="fill: #1f77b4; fill-opacity: 0.12; stroke: #1f77b4; stroke-opacity: 0.12"/>
    </g>
   </g>
   <g id="FillBetweenPolyCollection_2">
    <defs>
     <path id="meeb35f86f2" d="M 74.438182 -183.576238 
L 74.438182 -171.068277 
L 83.370909 -135.502184 
L 92.303636 -161.578584 
L 101.236364 -171.627411 
L 110.169091 -161.021291 
L 119.101818 -164.366598 
L 128.034545 -148.232638 
L 136.967273 -173.305419 
L 145.9 -173.305419 
L 154.832727 -172.186646 
L 163.765455 -173.864957 
L 172.698182 -172.186646 
L 181.630909 -171.627411 
L 190.563636 -172.186646 
L 199.496364 -171.068277 
L 208.429091 -171.627411 
L 217.361818 -171.627411 
L 226.294545 -172.186646 
L 235.227273 -173.305419 
L 244.16 -173.864957 
L 253.092727 -172.186646 
L 262.025455 -173.864957 
L 270.958182 -173.864957 
L 279.890909 -173.305419 
L 288.823636 -173.864957 
L 297.756364 -173.864957 
L 306.689091 -173.864957 
L 315.621818 -173.864957 
L 324.554545 -172.186646 
L 333.487273 -173.864957 
L 342.42 -173.864957 
L 351.352727 -173.864957 
L 360.285455 -173.864957 
L 369.218182 -173.864957 
L 378.150909 -173.864957 
L 387.083636 -172.186646 
L 396.016364 -173.864957 
L 404.949091 -173.864957 
L 413.881818 -173.864957 
L 422.814545 -173.864957 
L 431.747273 -173.864957 
L 440.68 -173.864957 
L 449.612727 -175.544176 
L 458.545455 -174.424596 
L 467.478182 -173.864957 
L 476.410909 -172.186646 
L 485.343636 -173.864957 
L 494.276364 -177.2243 
L 503.209091 -173.864957 
L 512.141818 -173.864957 
L 521.074545 -173.864957 
L 530.007273 -173.864957 
L 538.94 -173.864957 
L 547.872727 -173.864957 
L 556.805455 -172.186646 
L 565.738182 -173.864957 
L 574.670909 -173.864957 
L 583.603636 -172.745982 
L 592.536364 -173.864957 
L 601.469091 -173.864957 
L 610.401818 -173.864957 
L 610.401818 -186.389513 
L 610.401818 -186.389513 
L 601.469091 -186.389513 
L 592.536364 -186.389513 
L 583.603636 -185.264506 
L 574.670909 -186.389513 
L 565.738182 -186.389513 
L 556.805455 -184.701851 
L 547.872727 -186.389513 
L 538.94 -186.389513 
L 530.007273 -186.389513 
L 521.074545 -186.389513 
L 512.141818 -186.389513 
L 503.209091 -186.389513 
L 494.276364 -189.762116 
L 485.343636 -186.389513 
L 476.410909 -184.701851 
L 467.478182 -186.389513 
L 458.545455 -186.951865 
L 449.612727 -188.076267 
L 440.68 -186.389513 
L 431.747273 -186.389513 
L 422.814545 -186.389513 
L 413.881818 -186.389513 
L 404.949091 -186.389513 
L 396.016364 -186.389513 
L 387.083636 -184.701851 
L 378.150909 -186.389513 
L 369.218182 -186.389513 
L 360.285455 -186.389513 
L 351.352727 -186.389513 
L 342.42 -186.389513 
L 333.487273 -186.389513 
L 324.554545 -184.701851 
L 315.621818 -186.389513 
L 306.689091 -186.389513 
L 297.756364 -186.389513 
L 288.823636 -186.389513 
L 279.890909 -185.82706 
L 270.958182 -186.389513 
L 262.025455 -186.389513 
L 253.092727 -184.701851 
L 244.16 -186.389513 
L 235.227273 -185.82706 
L 226.294545 -184.701851 
L 217.361818 -184.139095 
L 208.429091 -184.139095 
L 199.496364 -183.576238 
L 190.563636 -184.701851 
L 181.630909 -184.139095 
L 172.698182 -184.701851 
L 163.765455 -186.389513 
L 154.832727 -184.701851 
L 145.9 -185.82706 
L 136.967273 -185.82706 
L 128.034545 -160.410247 
L 119.101818 -176.814025 
L 110.169091 -173.427386 
L 101.236364 -184.139095 
L 92.303636 -173.992084 
L 83.370909 -147.334908 
L 74.438182 -183.576238 
z
" style="stroke: #2ca02c; stroke-opacity: 0.12"/>
    </defs>
    <g clip-path="url(#p430591e1dd)">
     <use xlink:href="#meeb35f86f2" x="0" y="360" style="fill: #2ca02c; fill-opacity: 0.12; stroke: #2ca02c; stroke-opacity: 0.12"/>
    </g>
   </g>
   <g id="FillBetweenPolyCollection_3">
    <defs>
     <path id="m215a2fe134" d="M 74.438182 -116.371282 
L 74.438182 -105.878297 
L 83.370909 -108.057889 
L 92.303636 -108.057889 
L 101.236364 -109.148683 
L 110.169091 -106.967756 
L 119.101818 -106.967756 
L 128.034545 -108.603204 
L 136.967273 -106.967756 
L 145.9 -106.967756 
L 154.832727 -108.057889 
L 163.765455 -108.603204 
L 172.698182 -108.057889 
L 181.630909 -108.057889 
L 190.563636 -108.057889 
L 199.496364 -107.512739 
L 208.429091 -106.967756 
L 217.361818 -106.967756 
L 226.294545 -107.512739 
L 235.227273 -106.967756 
L 244.16 -106.967756 
L 253.092727 -107.512739 
L 262.025455 -117.34963 
L 270.958182 -106.967756 
L 279.890909 -106.967756 
L 288.823636 -117.34963 
L 297.756364 -106.967756 
L 306.689091 -117.34963 
L 315.621818 -117.897556 
L 324.554545 -106.967756 
L 333.487273 -117.897556 
L 342.42 -117.34963 
L 351.352727 -123.933996 
L 360.285455 -63.13064 
L 369.218182 -117.34963 
L 378.150909 -62.613915 
L 387.083636 -117.34963 
L 396.016364 -123.384545 
L 404.949091 -63.13064 
L 413.881818 -117.34963 
L 422.814545 -63.13064 
L 431.747273 -62.613915 
L 440.68 -117.34963 
L 449.612727 -117.34963 
L 458.545455 -117.34963 
L 467.478182 -117.34963 
L 476.410909 -121.188089 
L 485.343636 -62.613915 
L 494.276364 -120.639318 
L 503.209091 -110.240127 
L 512.141818 -109.694324 
L 521.074545 -121.188089 
L 530.007273 -120.639318 
L 538.94 -63.648184 
L 547.872727 -62.613915 
L 556.805455 -110.240127 
L 565.738182 -112.42492 
L 574.670909 -122.835227 
L 583.603636 -63.13064 
L 592.536364 -122.835227 
L 601.469091 -122.835227 
L 610.401818 -115.706722 
L 610.401818 -126.738695 
L 610.401818 -126.738695 
L 601.469091 -134.196072 
L 592.536364 -134.196072 
L 583.603636 -69.35966 
L 574.670909 -134.196072 
L 565.738182 -123.288551 
L 556.805455 -120.98538 
L 547.872727 -68.754394 
L 538.94 -69.964107 
L 530.007273 -131.904018 
L 521.074545 -132.477237 
L 512.141818 -120.409191 
L 503.209091 -120.98538 
L 494.276364 -131.904018 
L 485.343636 -68.754394 
L 476.410909 -132.477237 
L 467.478182 -128.46176 
L 458.545455 -128.46176 
L 449.612727 -128.46176 
L 440.68 -128.46176 
L 431.747273 -68.754394 
L 422.814545 -69.35966 
L 413.881818 -128.46176 
L 404.949091 -69.35966 
L 396.016364 -134.768745 
L 387.083636 -128.46176 
L 378.150909 -68.754394 
L 369.218182 -128.46176 
L 360.285455 -69.35966 
L 351.352727 -135.341285 
L 342.42 -128.46176 
L 333.487273 -129.035824 
L 324.554545 -117.525805 
L 315.621818 -129.035824 
L 306.689091 -128.46176 
L 297.756364 -117.525805 
L 288.823636 -128.46176 
L 279.890909 -117.525805 
L 270.958182 -117.525805 
L 262.025455 -128.46176 
L 253.092727 -118.102813 
L 244.16 -117.525805 
L 235.227273 -117.525805 
L 226.294545 -118.102813 
L 217.361818 -117.525805 
L 208.429091 -117.525805 
L 199.496364 -118.102813 
L 190.563636 -118.679654 
L 181.630909 -118.679654 
L 172.698182 -118.679654 
L 163.765455 -119.25633 
L 154.832727 -118.679654 
L 145.9 -117.525805 
L 136.967273 -117.525805 
L 128.034545 -119.25633 
L 119.101818 -117.525805 
L 110.169091 -117.525805 
L 101.236364 -119.832842 
L 92.303636 -118.679654 
L 83.370909 -118.679654 
L 74.438182 -116.371282 
z
" style="stroke: #d62728; stroke-opacity: 0.12"/>
    </defs>
    <g clip-path="url(#p430591e1dd)">
     <use xlink:href="#m215a2fe134" x="0" y="360" style="fill: #d62728; fill-opacity: 0.12; stroke: #d62728; stroke-opacity: 0.12"/>
    </g>
   </g>
   <g id="matplotlib.axis_1">
    <g id="xtick_1">
     <g id="line2d_1">
      <defs>
       <path id="ma5d42bcc82" d="M 0 0 
L 0 3.5 
" style="stroke: #000000; stroke-width: 0.8"/>
      </defs>
      <g>
       <use xlink:href="#ma5d42bcc82" x="74.438182" y="317.877656" style="stroke: #000000; stroke-width: 0.8"/>
      </g>
     </g>
     <g id="text_1">
      <!-- 0 -->
      <g transform="translate(71.256932 332.475312) scale(0.1 -0.1)">
       <defs>
        <path id="DejaVuSans-13" d="M 2034 4250 
Q 1547 4250 1301 3770 
Q 1056 3291 1056 2328 
Q 1056 1369 1301 889 
Q 1547 409 2034 409 
Q 2525 409 2770 889 
Q 3016 1369 3016 2328 
Q 3016 3291 2770 3770 
Q 2525 4250 2034 4250 
z
M 2034 4750 
Q 2819 4750 3233 4129 
Q 3647 3509 3647 2328 
Q 3647 1150 3233 529 
Q 2819 -91 2034 -91 
Q 1250 -91 836 529 
Q 422 1150 422 2328 
Q 422 3509 836 4129 
Q 1250 4750 2034 4750 
z
" transform="scale(0.015625)"/>
       </defs>
       <use xlink:href="#DejaVuSans-13"/>
      </g>
     </g>
    </g>
    <g id="xtick_2">
     <g id="line2d_2">
      <g>
       <use xlink:href="#ma5d42bcc82" x="163.765455" y="317.877656" style="stroke: #000000; stroke-width: 0.8"/>
      </g>
     </g>
     <g id="text_2">
      <!-- 50 -->
      <g transform="translate(157.402955 332.475312) scale(0.1 -0.1)">
       <defs>
        <path id="DejaVuSans-18" d="M 691 4666 
L 3169 4666 
L 3169 4134 
L 1269 4134 
L 1269 2991 
Q 1406 3038 1543 3061 
Q 1681 3084 1819 3084 
Q 2600 3084 3056 2656 
Q 3513 2228 3513 1497 
Q 3513 744 3044 326 
Q 2575 -91 1722 -91 
Q 1428 -91 1123 -41 
Q 819 9 494 109 
L 494 744 
Q 775 591 1075 516 
Q 1375 441 1709 441 
Q 2250 441 2565 725 
Q 2881 1009 2881 1497 
Q 2881 1984 2565 2268 
Q 2250 2553 1709 2553 
Q 1456 2553 1204 2497 
Q 953 2441 691 2322 
L 691 4666 
z
" transform="scale(0.015625)"/>
       </defs>
       <use xlink:href="#DejaVuSans-18"/>
       <use xlink:href="#DejaVuSans-13" transform="translate(63.625 0)"/>
      </g>
     </g>
    </g>
    <g id="xtick_3">
     <g id="line2d_3">
      <g>
       <use xlink:href="#ma5d42bcc82" x="253.092727" y="317.877656" style="stroke: #000000; stroke-width: 0.8"/>
      </g>
     </g>
     <g id="text_3">
      <!-- 100 -->
      <g transform="translate(243.548977 332.475312) scale(0.1 -0.1)">
       <defs>
        <path id="DejaVuSans-14" d="M 794 531 
L 1825 531 
L 1825 4091 
L 703 3866 
L 703 4441 
L 1819 4666 
L 2450 4666 
L 2450 531 
L 3481 531 
L 3481 0 
L 794 0 
L 794 531 
z
" transform="scale(0.015625)"/>
       </defs>
       <use xlink:href="#DejaVuSans-14"/>
       <use xlink:href="#DejaVuSans-13" transform="translate(63.625 0)"/>
       <use xlink:href="#DejaVuSans-13" transform="translate(127.25 0)"/>
      </g>
     </g>
    </g>
    <g id="xtick_4">
     <g id="line2d_4">
      <g>
       <use xlink:href="#ma5d42bcc82" x="342.42" y="317.877656" style="stroke: #000000; stroke-width: 0.8"/>
      </g>
     </g>
     <g id="text_4">
      <!-- 150 -->
      <g transform="translate(332.87625 332.475312) scale(0.1 -0.1)">
       <use xlink:href="#DejaVuSans-14"/>
       <use xlink:href="#DejaVuSans-18" transform="translate(63.625 0)"/>
       <use xlink:href="#DejaVuSans-13" transform="translate(127.25 0)"/>
      </g>
     </g>
    </g>
    <g id="xtick_5">
     <g id="line2d_5">
      <g>
       <use xlink:href="#ma5d42bcc82" x="431.747273" y="317.877656" style="stroke: #000000; stroke-width: 0.8"/>
      </g>
     </g>
     <g id="text_5">
      <!-- 200 -->
      <g transform="translate(422.203523 332.475312) scale(0.1 -0.1)">
       <defs>
        <path id="DejaVuSans-15" d="M 1228 531 
L 3431 531 
L 3431 0 
L 469 0 
L 469 531 
Q 828 903 1448 1529 
Q 2069 2156 2228 2338 
Q 2531 2678 2651 2914 
Q 2772 3150 2772 3378 
Q 2772 3750 2511 3984 
Q 2250 4219 1831 4219 
Q 1534 4219 1204 4116 
Q 875 4013 500 3803 
L 500 4441 
Q 881 4594 1212 4672 
Q 1544 4750 1819 4750 
Q 2544 4750 2975 4387 
Q 3406 4025 3406 3419 
Q 3406 3131 3298 2873 
Q 3191 2616 2906 2266 
Q 2828 2175 2409 1742 
Q 1991 1309 1228 531 
z
" transform="scale(0.015625)"/>
       </defs>
       <use xlink:href="#DejaVuSans-15"/>
       <use xlink:href="#DejaVuSans-13" transform="translate(63.625 0)"/>
       <use xlink:href="#DejaVuSans-13" transform="translate(127.25 0)"/>
      </g>
     </g>
    </g>
    <g id="xtick_6">
     <g id="line2d_6">
      <g>
       <use xlink:href="#ma5d42bcc82" x="521.074545" y="317.877656" style="stroke: #000000; stroke-width: 0.8"/>
      </g>
     </g>
     <g id="text_6">
      <!-- 250 -->
      <g transform="translate(511.530795 332.475312) scale(0.1 -0.1)">
       <use xlink:href="#DejaVuSans-15"/>
       <use xlink:href="#DejaVuSans-18" transform="translate(63.625 0)"/>
       <use xlink:href="#DejaVuSans-13" transform="translate(127.25 0)"/>
      </g>
     </g>
    </g>
    <g id="xtick_7">
     <g id="line2d_7">
      <g>
       <use xlink:href="#ma5d42bcc82" x="610.401818" y="317.877656" style="stroke: #000000; stroke-width: 0.8"/>
      </g>
     </g>
     <g id="text_7">
      <!-- 300 -->
      <g transform="translate(600.858068 332.475312) scale(0.1 -0.1)">
       <defs>
        <path id="DejaVuSans-16" d="M 2597 2516 
Q 3050 2419 3304 2112 
Q 3559 1806 3559 1356 
Q 3559 666 3084 287 
Q 2609 -91 1734 -91 
Q 1441 -91 1130 -33 
Q 819 25 488 141 
L 488 750 
Q 750 597 1062 519 
Q 1375 441 1716 441 
Q 2309 441 2620 675 
Q 2931 909 2931 1356 
Q 2931 1769 2642 2001 
Q 2353 2234 1838 2234 
L 1294 2234 
L 1294 2753 
L 1863 2753 
Q 2328 2753 2575 2939 
Q 2822 3125 2822 3475 
Q 2822 3834 2567 4026 
Q 2313 4219 1838 4219 
Q 1578 4219 1281 4162 
Q 984 4106 628 3988 
L 628 4550 
Q 988 4650 1302 4700 
Q 1616 4750 1894 4750 
Q 2613 4750 3031 4423 
Q 3450 4097 3450 3541 
Q 3450 3153 3228 2886 
Q 3006 2619 2597 2516 
z
" transform="scale(0.015625)"/>
       </defs>
       <use xlink:href="#DejaVuSans-16"/>
       <use xlink:href="#DejaVuSans-13" transform="translate(63.625 0)"/>
       <use xlink:href="#DejaVuSans-13" transform="translate(127.25 0)"/>
      </g>
     </g>
    </g>
    <g id="text_8">
     <!-- epoch -->
     <g transform="translate(327.191875 346.476094) scale(0.1 -0.1)">
      <defs>
       <path id="DejaVuSans-48" d="M 3597 1894 
L 3597 1613 
L 953 1613 
Q 991 1019 1311 708 
Q 1631 397 2203 397 
Q 2534 397 2845 478 
Q 3156 559 3463 722 
L 3463 178 
Q 3153 47 2828 -22 
Q 2503 -91 2169 -91 
Q 1331 -91 842 396 
Q 353 884 353 1716 
Q 353 2575 817 3079 
Q 1281 3584 2069 3584 
Q 2775 3584 3186 3129 
Q 3597 2675 3597 1894 
z
M 3022 2063 
Q 3016 2534 2758 2815 
Q 2500 3097 2075 3097 
Q 1594 3097 1305 2825 
Q 1016 2553 972 2059 
L 3022 2063 
z
" transform="scale(0.015625)"/>
       <path id="DejaVuSans-53" d="M 1159 525 
L 1159 -1331 
L 581 -1331 
L 581 3500 
L 1159 3500 
L 1159 2969 
Q 1341 3281 1617 3432 
Q 1894 3584 2278 3584 
Q 2916 3584 3314 3078 
Q 3713 2572 3713 1747 
Q 3713 922 3314 415 
Q 2916 -91 2278 -91 
Q 1894 -91 1617 61 
Q 1341 213 1159 525 
z
M 3116 1747 
Q 3116 2381 2855 2742 
Q 2594 3103 2138 3103 
Q 1681 3103 1420 2742 
Q 1159 2381 1159 1747 
Q 1159 1113 1420 752 
Q 1681 391 2138 391 
Q 2594 391 2855 752 
Q 3116 1113 3116 1747 
z
" transform="scale(0.015625)"/>
       <path id="DejaVuSans-52" d="M 1959 3097 
Q 1497 3097 1228 2736 
Q 959 2375 959 1747 
Q 959 1119 1226 758 
Q 1494 397 1959 397 
Q 2419 397 2687 759 
Q 2956 1122 2956 1747 
Q 2956 2369 2687 2733 
Q 2419 3097 1959 3097 
z
M 1959 3584 
Q 2709 3584 3137 3096 
Q 3566 2609 3566 1747 
Q 3566 888 3137 398 
Q 2709 -91 1959 -91 
Q 1206 -91 779 398 
Q 353 888 353 1747 
Q 353 2609 779 3096 
Q 1206 3584 1959 3584 
z
" transform="scale(0.015625)"/>
       <path id="DejaVuSans-46" d="M 3122 3366 
L 3122 2828 
Q 2878 2963 2633 3030 
Q 2388 3097 2138 3097 
Q 1578 3097 1268 2742 
Q 959 2388 959 1747 
Q 959 1106 1268 751 
Q 1578 397 2138 397 
Q 2388 397 2633 464 
Q 2878 531 3122 666 
L 3122 134 
Q 2881 22 2623 -34 
Q 2366 -91 2075 -91 
Q 1284 -91 818 406 
Q 353 903 353 1747 
Q 353 2603 823 3093 
Q 1294 3584 2113 3584 
Q 2378 3584 2631 3529 
Q 2884 3475 3122 3366 
z
" transform="scale(0.015625)"/>
       <path id="DejaVuSans-4b" d="M 3513 2113 
L 3513 0 
L 2938 0 
L 2938 2094 
Q 2938 2591 2744 2837 
Q 2550 3084 2163 3084 
Q 1697 3084 1428 2787 
Q 1159 2491 1159 1978 
L 1159 0 
L 581 0 
L 581 4863 
L 1159 4863 
L 1159 2956 
Q 1366 3272 1645 3428 
Q 1925 3584 2291 3584 
Q 2894 3584 3203 3211 
Q 3513 2838 3513 2113 
z
" transform="scale(0.015625)"/>
      </defs>
      <use xlink:href="#DejaVuSans-48"/>
      <use xlink:href="#DejaVuSans-53" transform="translate(61.53125 0)"/>
      <use xlink:href="#DejaVuSans-52" transform="translate(125.015625 0)"/>
      <use xlink:href="#DejaVuSans-46" transform="translate(186.203125 0)"/>
      <use xlink:href="#DejaVuSans-4b" transform="translate(241.1875 0)"/>
     </g>
    </g>
   </g>
   <g id="matplotlib.axis_2">
    <g id="ytick_1">
     <g id="line2d_8">
      <defs>
       <path id="m7ccbe12fdb" d="M 0 0 
L -3.5 0 
" style="stroke: #000000; stroke-width: 0.8"/>
      </defs>
      <g>
       <use xlink:href="#m7ccbe12fdb" x="47.64" y="312.267701" style="stroke: #000000; stroke-width: 0.8"/>
      </g>
     </g>
     <g id="text_9">
      <!-- 0.0 -->
      <g transform="translate(24.736875 316.066529) scale(0.1 -0.1)">
       <defs>
        <path id="DejaVuSans-11" d="M 684 794 
L 1344 794 
L 1344 0 
L 684 0 
L 684 794 
z
" transform="scale(0.015625)"/>
       </defs>
       <use xlink:href="#DejaVuSans-13"/>
       <use xlink:href="#DejaVuSans-11" transform="translate(63.625 0)"/>
       <use xlink:href="#DejaVuSans-13" transform="translate(95.40625 0)"/>
      </g>
     </g>
    </g>
    <g id="ytick_2">
     <g id="line2d_9">
      <g>
       <use xlink:href="#m7ccbe12fdb" x="47.64" y="256.168152" style="stroke: #000000; stroke-width: 0.8"/>
      </g>
     </g>
     <g id="text_10">
      <!-- 0.2 -->
      <g transform="translate(24.736875 259.96698) scale(0.1 -0.1)">
       <use xlink:href="#DejaVuSans-13"/>
       <use xlink:href="#DejaVuSans-11" transform="translate(63.625 0)"/>
       <use xlink:href="#DejaVuSans-15" transform="translate(95.40625 0)"/>
      </g>
     </g>
    </g>
    <g id="ytick_3">
     <g id="line2d_10">
      <g>
       <use xlink:href="#m7ccbe12fdb" x="47.64" y="200.068603" style="stroke: #000000; stroke-width: 0.8"/>
      </g>
     </g>
     <g id="text_11">
      <!-- 0.4 -->
      <g transform="translate(24.736875 203.867431) scale(0.1 -0.1)">
       <defs>
        <path id="DejaVuSans-17" d="M 2419 4116 
L 825 1625 
L 2419 1625 
L 2419 4116 
z
M 2253 4666 
L 3047 4666 
L 3047 1625 
L 3713 1625 
L 3713 1100 
L 3047 1100 
L 3047 0 
L 2419 0 
L 2419 1100 
L 313 1100 
L 313 1709 
L 2253 4666 
z
" transform="scale(0.015625)"/>
       </defs>
       <use xlink:href="#DejaVuSans-13"/>
       <use xlink:href="#DejaVuSans-11" transform="translate(63.625 0)"/>
       <use xlink:href="#DejaVuSans-17" transform="translate(95.40625 0)"/>
      </g>
     </g>
    </g>
    <g id="ytick_4">
     <g id="line2d_11">
      <g>
       <use xlink:href="#m7ccbe12fdb" x="47.64" y="143.969053" style="stroke: #000000; stroke-width: 0.8"/>
      </g>
     </g>
     <g id="text_12">
      <!-- 0.6 -->
      <g transform="translate(24.736875 147.767882) scale(0.1 -0.1)">
       <defs>
        <path id="DejaVuSans-19" d="M 2113 2584 
Q 1688 2584 1439 2293 
Q 1191 2003 1191 1497 
Q 1191 994 1439 701 
Q 1688 409 2113 409 
Q 2538 409 2786 701 
Q 3034 994 3034 1497 
Q 3034 2003 2786 2293 
Q 2538 2584 2113 2584 
z
M 3366 4563 
L 3366 3988 
Q 3128 4100 2886 4159 
Q 2644 4219 2406 4219 
Q 1781 4219 1451 3797 
Q 1122 3375 1075 2522 
Q 1259 2794 1537 2939 
Q 1816 3084 2150 3084 
Q 2853 3084 3261 2657 
Q 3669 2231 3669 1497 
Q 3669 778 3244 343 
Q 2819 -91 2113 -91 
Q 1303 -91 875 529 
Q 447 1150 447 2328 
Q 447 3434 972 4092 
Q 1497 4750 2381 4750 
Q 2619 4750 2861 4703 
Q 3103 4656 3366 4563 
z
" transform="scale(0.015625)"/>
       </defs>
       <use xlink:href="#DejaVuSans-13"/>
       <use xlink:href="#DejaVuSans-11" transform="translate(63.625 0)"/>
       <use xlink:href="#DejaVuSans-19" transform="translate(95.40625 0)"/>
      </g>
     </g>
    </g>
    <g id="ytick_5">
     <g id="line2d_12">
      <g>
       <use xlink:href="#m7ccbe12fdb" x="47.64" y="87.869504" style="stroke: #000000; stroke-width: 0.8"/>
      </g>
     </g>
     <g id="text_13">
      <!-- 0.8 -->
      <g transform="translate(24.736875 91.668332) scale(0.1 -0.1)">
       <defs>
        <path id="DejaVuSans-1b" d="M 2034 2216 
Q 1584 2216 1326 1975 
Q 1069 1734 1069 1313 
Q 1069 891 1326 650 
Q 1584 409 2034 409 
Q 2484 409 2743 651 
Q 3003 894 3003 1313 
Q 3003 1734 2745 1975 
Q 2488 2216 2034 2216 
z
M 1403 2484 
Q 997 2584 770 2862 
Q 544 3141 544 3541 
Q 544 4100 942 4425 
Q 1341 4750 2034 4750 
Q 2731 4750 3128 4425 
Q 3525 4100 3525 3541 
Q 3525 3141 3298 2862 
Q 3072 2584 2669 2484 
Q 3125 2378 3379 2068 
Q 3634 1759 3634 1313 
Q 3634 634 3220 271 
Q 2806 -91 2034 -91 
Q 1263 -91 848 271 
Q 434 634 434 1313 
Q 434 1759 690 2068 
Q 947 2378 1403 2484 
z
M 1172 3481 
Q 1172 3119 1398 2916 
Q 1625 2713 2034 2713 
Q 2441 2713 2670 2916 
Q 2900 3119 2900 3481 
Q 2900 3844 2670 4047 
Q 2441 4250 2034 4250 
Q 1625 4250 1398 4047 
Q 1172 3844 1172 3481 
z
" transform="scale(0.015625)"/>
       </defs>
       <use xlink:href="#DejaVuSans-13"/>
       <use xlink:href="#DejaVuSans-11" transform="translate(63.625 0)"/>
       <use xlink:href="#DejaVuSans-1b" transform="translate(95.40625 0)"/>
      </g>
     </g>
    </g>
    <g id="ytick_6">
     <g id="line2d_13">
      <g>
       <use xlink:href="#m7ccbe12fdb" x="47.64" y="31.769955" style="stroke: #000000; stroke-width: 0.8"/>
      </g>
     </g>
     <g id="text_14">
      <!-- 1.0 -->
      <g transform="translate(24.736875 35.568783) scale(0.1 -0.1)">
       <use xlink:href="#DejaVuSans-14"/>
       <use xlink:href="#DejaVuSans-11" transform="translate(63.625 0)"/>
       <use xlink:href="#DejaVuSans-13" transform="translate(95.40625 0)"/>
      </g>
     </g>
    </g>
    <g id="text_15">
     <!-- success_rate -->
     <g transform="translate(18.334531 204.232891) rotate(-90) scale(0.1 -0.1)">
      <defs>
       <path id="DejaVuSans-56" d="M 2834 3397 
L 2834 2853 
Q 2591 2978 2328 3040 
Q 2066 3103 1784 3103 
Q 1356 3103 1142 2972 
Q 928 2841 928 2578 
Q 928 2378 1081 2264 
Q 1234 2150 1697 2047 
L 1894 2003 
Q 2506 1872 2764 1633 
Q 3022 1394 3022 966 
Q 3022 478 2636 193 
Q 2250 -91 1575 -91 
Q 1294 -91 989 -36 
Q 684 19 347 128 
L 347 722 
Q 666 556 975 473 
Q 1284 391 1588 391 
Q 1994 391 2212 530 
Q 2431 669 2431 922 
Q 2431 1156 2273 1281 
Q 2116 1406 1581 1522 
L 1381 1569 
Q 847 1681 609 1914 
Q 372 2147 372 2553 
Q 372 3047 722 3315 
Q 1072 3584 1716 3584 
Q 2034 3584 2315 3537 
Q 2597 3491 2834 3397 
z
" transform="scale(0.015625)"/>
       <path id="DejaVuSans-58" d="M 544 1381 
L 544 3500 
L 1119 3500 
L 1119 1403 
Q 1119 906 1312 657 
Q 1506 409 1894 409 
Q 2359 409 2629 706 
Q 2900 1003 2900 1516 
L 2900 3500 
L 3475 3500 
L 3475 0 
L 2900 0 
L 2900 538 
Q 2691 219 2414 64 
Q 2138 -91 1772 -91 
Q 1169 -91 856 284 
Q 544 659 544 1381 
z
M 1991 3584 
L 1991 3584 
z
" transform="scale(0.015625)"/>
       <path id="DejaVuSans-42" d="M 3263 -1063 
L 3263 -1509 
L -63 -1509 
L -63 -1063 
L 3263 -1063 
z
" transform="scale(0.015625)"/>
       <path id="DejaVuSans-55" d="M 2631 2963 
Q 2534 3019 2420 3045 
Q 2306 3072 2169 3072 
Q 1681 3072 1420 2755 
Q 1159 2438 1159 1844 
L 1159 0 
L 581 0 
L 581 3500 
L 1159 3500 
L 1159 2956 
Q 1341 3275 1631 3429 
Q 1922 3584 2338 3584 
Q 2397 3584 2469 3576 
Q 2541 3569 2628 3553 
L 2631 2963 
z
" transform="scale(0.015625)"/>
       <path id="DejaVuSans-44" d="M 2194 1759 
Q 1497 1759 1228 1600 
Q 959 1441 959 1056 
Q 959 750 1161 570 
Q 1363 391 1709 391 
Q 2188 391 2477 730 
Q 2766 1069 2766 1631 
L 2766 1759 
L 2194 1759 
z
M 3341 1997 
L 3341 0 
L 2766 0 
L 2766 531 
Q 2569 213 2275 61 
Q 1981 -91 1556 -91 
Q 1019 -91 701 211 
Q 384 513 384 1019 
Q 384 1609 779 1909 
Q 1175 2209 1959 2209 
L 2766 2209 
L 2766 2266 
Q 2766 2663 2505 2880 
Q 2244 3097 1772 3097 
Q 1472 3097 1187 3025 
Q 903 2953 641 2809 
L 641 3341 
Q 956 3463 1253 3523 
Q 1550 3584 1831 3584 
Q 2591 3584 2966 3190 
Q 3341 2797 3341 1997 
z
" transform="scale(0.015625)"/>
       <path id="DejaVuSans-57" d="M 1172 4494 
L 1172 3500 
L 2356 3500 
L 2356 3053 
L 1172 3053 
L 1172 1153 
Q 1172 725 1289 603 
Q 1406 481 1766 481 
L 2356 481 
L 2356 0 
L 1766 0 
Q 1100 0 847 248 
Q 594 497 594 1153 
L 594 3053 
L 172 3053 
L 172 3500 
L 594 3500 
L 594 4494 
L 1172 4494 
z
" transform="scale(0.015625)"/>
      </defs>
      <use xlink:href="#DejaVuSans-56"/>
      <use xlink:href="#DejaVuSans-58" transform="translate(52.09375 0)"/>
      <use xlink:href="#DejaVuSans-46" transform="translate(115.46875 0)"/>
      <use xlink:href="#DejaVuSans-46" transform="translate(170.453125 0)"/>
      <use xlink:href="#DejaVuSans-48" transform="translate(225.4375 0)"/>
      <use xlink:href="#DejaVuSans-56" transform="translate(286.96875 0)"/>
      <use xlink:href="#DejaVuSans-56" transform="translate(339.0625 0)"/>
      <use xlink:href="#DejaVuSans-42" transform="translate(391.15625 0)"/>
      <use xlink:href="#DejaVuSans-55" transform="translate(441.15625 0)"/>
      <use xlink:href="#DejaVuSans-44" transform="translate(482.265625 0)"/>
      <use xlink:href="#DejaVuSans-57" transform="translate(543.546875 0)"/>
      <use xlink:href="#DejaVuSans-48" transform="translate(582.75 0)"/>
     </g>
    </g>
   </g>
   <g id="line2d_14">
    <path d="M 74.438182 209.044531 
L 83.370909 226.435391 
L 92.303636 212.971499 
L 101.236364 207.361544 
L 110.169091 212.971499 
L 119.101818 213.532495 
L 128.034545 223.630413 
L 136.967273 207.361544 
L 145.9 208.483535 
L 154.832727 207.361544 
L 163.765455 206.239553 
L 172.698182 206.800549 
L 181.630909 207.361544 
L 190.563636 207.361544 
L 199.496364 208.483535 
L 208.429091 207.92254 
L 217.361818 207.92254 
L 226.294545 207.361544 
L 235.227273 207.92254 
L 244.16 206.239553 
L 253.092727 207.361544 
L 262.025455 205.117562 
L 270.958182 206.239553 
L 279.890909 208.483535 
L 288.823636 204.556567 
L 297.756364 206.800549 
L 306.689091 205.117562 
L 315.621818 205.117562 
L 324.554545 207.361544 
L 333.487273 205.117562 
L 342.42 205.117562 
L 351.352727 199.507607 
L 360.285455 225.3134 
L 369.218182 205.117562 
L 378.150909 225.3134 
L 387.083636 205.678558 
L 396.016364 200.629598 
L 404.949091 224.752404 
L 413.881818 205.117562 
L 422.814545 225.3134 
L 431.747273 225.874395 
L 440.68 205.117562 
L 449.612727 202.87358 
L 458.545455 205.117562 
L 467.478182 205.117562 
L 476.410909 202.312585 
L 485.343636 225.874395 
L 494.276364 198.946612 
L 503.209091 204.556567 
L 512.141818 205.117562 
L 521.074545 201.190594 
L 530.007273 201.751589 
L 538.94 225.3134 
L 547.872727 225.874395 
L 556.805455 205.678558 
L 565.738182 202.87358 
L 574.670909 201.751589 
L 583.603636 226.435391 
L 592.536364 201.190594 
L 601.469091 201.751589 
L 610.401818 206.239553 
" clip-path="url(#p430591e1dd)" style="fill: none; stroke: #1f77b4; stroke-width: 1.5; stroke-linecap: square"/>
    <defs>
     <path id="md0f12d99bb" d="M 0 1.5 
C 0.397805 1.5 0.77937 1.341951 1.06066 1.06066 
C 1.341951 0.77937 1.5 0.397805 1.5 0 
C 1.5 -0.397805 1.341951 -0.77937 1.06066 -1.06066 
C 0.77937 -1.341951 0.397805 -1.5 0 -1.5 
C -0.397805 -1.5 -0.77937 -1.341951 -1.06066 -1.06066 
C -1.341951 -0.77937 -1.5 -0.397805 -1.5 0 
C -1.5 0.397805 -1.341951 0.77937 -1.06066 1.06066 
C -0.77937 1.341951 -0.397805 1.5 0 1.5 
z
" style="stroke: #1f77b4"/>
    </defs>
    <g clip-path="url(#p430591e1dd)">
     <use xlink:href="#md0f12d99bb" x="74.438182" y="209.044531" style="fill: #1f77b4; stroke: #1f77b4"/>
     <use xlink:href="#md0f12d99bb" x="83.370909" y="226.435391" style="fill: #1f77b4; stroke: #1f77b4"/>
     <use xlink:href="#md0f12d99bb" x="92.303636" y="212.971499" style="fill: #1f77b4; stroke: #1f77b4"/>
     <use xlink:href="#md0f12d99bb" x="101.236364" y="207.361544" style="fill: #1f77b4; stroke: #1f77b4"/>
     <use xlink:href="#md0f12d99bb" x="110.169091" y="212.971499" style="fill: #1f77b4; stroke: #1f77b4"/>
     <use xlink:href="#md0f12d99bb" x="119.101818" y="213.532495" style="fill: #1f77b4; stroke: #1f77b4"/>
     <use xlink:href="#md0f12d99bb" x="128.034545" y="223.630413" style="fill: #1f77b4; stroke: #1f77b4"/>
     <use xlink:href="#md0f12d99bb" x="136.967273" y="207.361544" style="fill: #1f77b4; stroke: #1f77b4"/>
     <use xlink:href="#md0f12d99bb" x="145.9" y="208.483535" style="fill: #1f77b4; stroke: #1f77b4"/>
     <use xlink:href="#md0f12d99bb" x="154.832727" y="207.361544" style="fill: #1f77b4; stroke: #1f77b4"/>
     <use xlink:href="#md0f12d99bb" x="163.765455" y="206.239553" style="fill: #1f77b4; stroke: #1f77b4"/>
     <use xlink:href="#md0f12d99bb" x="172.698182" y="206.800549" style="fill: #1f77b4; stroke: #1f77b4"/>
     <use xlink:href="#md0f12d99bb" x="181.630909" y="207.361544" style="fill: #1f77b4; stroke: #1f77b4"/>
     <use xlink:href="#md0f12d99bb" x="190.563636" y="207.361544" style="fill: #1f77b4; stroke: #1f77b4"/>
     <use xlink:href="#md0f12d99bb" x="199.496364" y="208.483535" style="fill: #1f77b4; stroke: #1f77b4"/>
     <use xlink:href="#md0f12d99bb" x="208.429091" y="207.92254" style="fill: #1f77b4; stroke: #1f77b4"/>
     <use xlink:href="#md0f12d99bb" x="217.361818" y="207.92254" style="fill: #1f77b4; stroke: #1f77b4"/>
     <use xlink:href="#md0f12d99bb" x="226.294545" y="207.361544" style="fill: #1f77b4; stroke: #1f77b4"/>
     <use xlink:href="#md0f12d99bb" x="235.227273" y="207.92254" style="fill: #1f77b4; stroke: #1f77b4"/>
     <use xlink:href="#md0f12d99bb" x="244.16" y="206.239553" style="fill: #1f77b4; stroke: #1f77b4"/>
     <use xlink:href="#md0f12d99bb" x="253.092727" y="207.361544" style="fill: #1f77b4; stroke: #1f77b4"/>
     <use xlink:href="#md0f12d99bb" x="262.025455" y="205.117562" style="fill: #1f77b4; stroke: #1f77b4"/>
     <use xlink:href="#md0f12d99bb" x="270.958182" y="206.239553" style="fill: #1f77b4; stroke: #1f77b4"/>
     <use xlink:href="#md0f12d99bb" x="279.890909" y="208.483535" style="fill: #1f77b4; stroke: #1f77b4"/>
     <use xlink:href="#md0f12d99bb" x="288.823636" y="204.556567" style="fill: #1f77b4; stroke: #1f77b4"/>
     <use xlink:href="#md0f12d99bb" x="297.756364" y="206.800549" style="fill: #1f77b4; stroke: #1f77b4"/>
     <use xlink:href="#md0f12d99bb" x="306.689091" y="205.117562" style="fill: #1f77b4; stroke: #1f77b4"/>
     <use xlink:href="#md0f12d99bb" x="315.621818" y="205.117562" style="fill: #1f77b4; stroke: #1f77b4"/>
     <use xlink:href="#md0f12d99bb" x="324.554545" y="207.361544" style="fill: #1f77b4; stroke: #1f77b4"/>
     <use xlink:href="#md0f12d99bb" x="333.487273" y="205.117562" style="fill: #1f77b4; stroke: #1f77b4"/>
     <use xlink:href="#md0f12d99bb" x="342.42" y="205.117562" style="fill: #1f77b4; stroke: #1f77b4"/>
     <use xlink:href="#md0f12d99bb" x="351.352727" y="199.507607" style="fill: #1f77b4; stroke: #1f77b4"/>
     <use xlink:href="#md0f12d99bb" x="360.285455" y="225.3134" style="fill: #1f77b4; stroke: #1f77b4"/>
     <use xlink:href="#md0f12d99bb" x="369.218182" y="205.117562" style="fill: #1f77b4; stroke: #1f77b4"/>
     <use xlink:href="#md0f12d99bb" x="378.150909" y="225.3134" style="fill: #1f77b4; stroke: #1f77b4"/>
     <use xlink:href="#md0f12d99bb" x="387.083636" y="205.678558" style="fill: #1f77b4; stroke: #1f77b4"/>
     <use xlink:href="#md0f12d99bb" x="396.016364" y="200.629598" style="fill: #1f77b4; stroke: #1f77b4"/>
     <use xlink:href="#md0f12d99bb" x="404.949091" y="224.752404" style="fill: #1f77b4; stroke: #1f77b4"/>
     <use xlink:href="#md0f12d99bb" x="413.881818" y="205.117562" style="fill: #1f77b4; stroke: #1f77b4"/>
     <use xlink:href="#md0f12d99bb" x="422.814545" y="225.3134" style="fill: #1f77b4; stroke: #1f77b4"/>
     <use xlink:href="#md0f12d99bb" x="431.747273" y="225.874395" style="fill: #1f77b4; stroke: #1f77b4"/>
     <use xlink:href="#md0f12d99bb" x="440.68" y="205.117562" style="fill: #1f77b4; stroke: #1f77b4"/>
     <use xlink:href="#md0f12d99bb" x="449.612727" y="202.87358" style="fill: #1f77b4; stroke: #1f77b4"/>
     <use xlink:href="#md0f12d99bb" x="458.545455" y="205.117562" style="fill: #1f77b4; stroke: #1f77b4"/>
     <use xlink:href="#md0f12d99bb" x="467.478182" y="205.117562" style="fill: #1f77b4; stroke: #1f77b4"/>
     <use xlink:href="#md0f12d99bb" x="476.410909" y="202.312585" style="fill: #1f77b4; stroke: #1f77b4"/>
     <use xlink:href="#md0f12d99bb" x="485.343636" y="225.874395" style="fill: #1f77b4; stroke: #1f77b4"/>
     <use xlink:href="#md0f12d99bb" x="494.276364" y="198.946612" style="fill: #1f77b4; stroke: #1f77b4"/>
     <use xlink:href="#md0f12d99bb" x="503.209091" y="204.556567" style="fill: #1f77b4; stroke: #1f77b4"/>
     <use xlink:href="#md0f12d99bb" x="512.141818" y="205.117562" style="fill: #1f77b4; stroke: #1f77b4"/>
     <use xlink:href="#md0f12d99bb" x="521.074545" y="201.190594" style="fill: #1f77b4; stroke: #1f77b4"/>
     <use xlink:href="#md0f12d99bb" x="530.007273" y="201.751589" style="fill: #1f77b4; stroke: #1f77b4"/>
     <use xlink:href="#md0f12d99bb" x="538.94" y="225.3134" style="fill: #1f77b4; stroke: #1f77b4"/>
     <use xlink:href="#md0f12d99bb" x="547.872727" y="225.874395" style="fill: #1f77b4; stroke: #1f77b4"/>
     <use xlink:href="#md0f12d99bb" x="556.805455" y="205.678558" style="fill: #1f77b4; stroke: #1f77b4"/>
     <use xlink:href="#md0f12d99bb" x="565.738182" y="202.87358" style="fill: #1f77b4; stroke: #1f77b4"/>
     <use xlink:href="#md0f12d99bb" x="574.670909" y="201.751589" style="fill: #1f77b4; stroke: #1f77b4"/>
     <use xlink:href="#md0f12d99bb" x="583.603636" y="226.435391" style="fill: #1f77b4; stroke: #1f77b4"/>
     <use xlink:href="#md0f12d99bb" x="592.536364" y="201.190594" style="fill: #1f77b4; stroke: #1f77b4"/>
     <use xlink:href="#md0f12d99bb" x="601.469091" y="201.751589" style="fill: #1f77b4; stroke: #1f77b4"/>
     <use xlink:href="#md0f12d99bb" x="610.401818" y="206.239553" style="fill: #1f77b4; stroke: #1f77b4"/>
    </g>
   </g>
   <g id="line2d_15">
    <path d="M 47.64 209.044531 
L 637.2 209.044531 
" clip-path="url(#p430591e1dd)" style="fill: none; stroke-dasharray: 3.7,1.6; stroke-dashoffset: 0; stroke: #1f77b4; stroke-opacity: 0.6"/>
   </g>
   <g id="line2d_16">
    <path d="M 47.64 154.627968 
L 637.2 154.627968 
" clip-path="url(#p430591e1dd)" style="fill: none; stroke-dasharray: 1,1.65; stroke-dashoffset: 0; stroke: #1f77b4; stroke-opacity: 0.6"/>
   </g>
   <g id="line2d_17">
    <path d="M 74.438182 182.677742 
L 83.370909 218.581454 
L 92.303636 192.214666 
L 101.236364 182.116747 
L 110.169091 192.775661 
L 119.101818 189.409688 
L 128.034545 205.678558 
L 136.967273 180.433761 
L 145.9 180.433761 
L 154.832727 181.555752 
L 163.765455 179.872765 
L 172.698182 181.555752 
L 181.630909 182.116747 
L 190.563636 181.555752 
L 199.496364 182.677742 
L 208.429091 182.116747 
L 217.361818 182.116747 
L 226.294545 181.555752 
L 235.227273 180.433761 
L 244.16 179.872765 
L 253.092727 181.555752 
L 262.025455 179.872765 
L 270.958182 179.872765 
L 279.890909 180.433761 
L 288.823636 179.872765 
L 297.756364 179.872765 
L 306.689091 179.872765 
L 315.621818 179.872765 
L 324.554545 181.555752 
L 333.487273 179.872765 
L 342.42 179.872765 
L 351.352727 179.872765 
L 360.285455 179.872765 
L 369.218182 179.872765 
L 378.150909 179.872765 
L 387.083636 181.555752 
L 396.016364 179.872765 
L 404.949091 179.872765 
L 413.881818 179.872765 
L 422.814545 179.872765 
L 431.747273 179.872765 
L 440.68 179.872765 
L 449.612727 178.189779 
L 458.545455 179.31177 
L 467.478182 179.872765 
L 476.410909 181.555752 
L 485.343636 179.872765 
L 494.276364 176.506792 
L 503.209091 179.872765 
L 512.141818 179.872765 
L 521.074545 179.872765 
L 530.007273 179.872765 
L 538.94 179.872765 
L 547.872727 179.872765 
L 556.805455 181.555752 
L 565.738182 179.872765 
L 574.670909 179.872765 
L 583.603636 180.994756 
L 592.536364 179.872765 
L 601.469091 179.872765 
L 610.401818 179.872765 
" clip-path="url(#p430591e1dd)" style="fill: none; stroke: #2ca02c; stroke-width: 1.5; stroke-linecap: square"/>
    <defs>
     <path id="mf767c7c4af" d="M 0 1.5 
C 0.397805 1.5 0.77937 1.341951 1.06066 1.06066 
C 1.341951 0.77937 1.5 0.397805 1.5 0 
C 1.5 -0.397805 1.341951 -0.77937 1.06066 -1.06066 
C 0.77937 -1.341951 0.397805 -1.5 0 -1.5 
C -0.397805 -1.5 -0.77937 -1.341951 -1.06066 -1.06066 
C -1.341951 -0.77937 -1.5 -0.397805 -1.5 0 
C -1.5 0.397805 -1.341951 0.77937 -1.06066 1.06066 
C -0.77937 1.341951 -0.397805 1.5 0 1.5 
z
" style="stroke: #2ca02c"/>
    </defs>
    <g clip-path="url(#p430591e1dd)">
     <use xlink:href="#mf767c7c4af" x="74.438182" y="182.677742" style="fill: #2ca02c; stroke: #2ca02c"/>
     <use xlink:href="#mf767c7c4af" x="83.370909" y="218.581454" style="fill: #2ca02c; stroke: #2ca02c"/>
     <use xlink:href="#mf767c7c4af" x="92.303636" y="192.214666" style="fill: #2ca02c; stroke: #2ca02c"/>
     <use xlink:href="#mf767c7c4af" x="101.236364" y="182.116747" style="fill: #2ca02c; stroke: #2ca02c"/>
     <use xlink:href="#mf767c7c4af" x="110.169091" y="192.775661" style="fill: #2ca02c; stroke: #2ca02c"/>
     <use xlink:href="#mf767c7c4af" x="119.101818" y="189.409688" style="fill: #2ca02c; stroke: #2ca02c"/>
     <use xlink:href="#mf767c7c4af" x="128.034545" y="205.678558" style="fill: #2ca02c; stroke: #2ca02c"/>
     <use xlink:href="#mf767c7c4af" x="136.967273" y="180.433761" style="fill: #2ca02c; stroke: #2ca02c"/>
     <use xlink:href="#mf767c7c4af" x="145.9" y="180.433761" style="fill: #2ca02c; stroke: #2ca02c"/>
     <use xlink:href="#mf767c7c4af" x="154.832727" y="181.555752" style="fill: #2ca02c; stroke: #2ca02c"/>
     <use xlink:href="#mf767c7c4af" x="163.765455" y="179.872765" style="fill: #2ca02c; stroke: #2ca02c"/>
     <use xlink:href="#mf767c7c4af" x="172.698182" y="181.555752" style="fill: #2ca02c; stroke: #2ca02c"/>
     <use xlink:href="#mf767c7c4af" x="181.630909" y="182.116747" style="fill: #2ca02c; stroke: #2ca02c"/>
     <use xlink:href="#mf767c7c4af" x="190.563636" y="181.555752" style="fill: #2ca02c; stroke: #2ca02c"/>
     <use xlink:href="#mf767c7c4af" x="199.496364" y="182.677742" style="fill: #2ca02c; stroke: #2ca02c"/>
     <use xlink:href="#mf767c7c4af" x="208.429091" y="182.116747" style="fill: #2ca02c; stroke: #2ca02c"/>
     <use xlink:href="#mf767c7c4af" x="217.361818" y="182.116747" style="fill: #2ca02c; stroke: #2ca02c"/>
     <use xlink:href="#mf767c7c4af" x="226.294545" y="181.555752" style="fill: #2ca02c; stroke: #2ca02c"/>
     <use xlink:href="#mf767c7c4af" x="235.227273" y="180.433761" style="fill: #2ca02c; stroke: #2ca02c"/>
     <use xlink:href="#mf767c7c4af" x="244.16" y="179.872765" style="fill: #2ca02c; stroke: #2ca02c"/>
     <use xlink:href="#mf767c7c4af" x="253.092727" y="181.555752" style="fill: #2ca02c; stroke: #2ca02c"/>
     <use xlink:href="#mf767c7c4af" x="262.025455" y="179.872765" style="fill: #2ca02c; stroke: #2ca02c"/>
     <use xlink:href="#mf767c7c4af" x="270.958182" y="179.872765" style="fill: #2ca02c; stroke: #2ca02c"/>
     <use xlink:href="#mf767c7c4af" x="279.890909" y="180.433761" style="fill: #2ca02c; stroke: #2ca02c"/>
     <use xlink:href="#mf767c7c4af" x="288.823636" y="179.872765" style="fill: #2ca02c; stroke: #2ca02c"/>
     <use xlink:href="#mf767c7c4af" x="297.756364" y="179.872765" style="fill: #2ca02c; stroke: #2ca02c"/>
     <use xlink:href="#mf767c7c4af" x="306.689091" y="179.872765" style="fill: #2ca02c; stroke: #2ca02c"/>
     <use xlink:href="#mf767c7c4af" x="315.621818" y="179.872765" style="fill: #2ca02c; stroke: #2ca02c"/>
     <use xlink:href="#mf767c7c4af" x="324.554545" y="181.555752" style="fill: #2ca02c; stroke: #2ca02c"/>
     <use xlink:href="#mf767c7c4af" x="333.487273" y="179.872765" style="fill: #2ca02c; stroke: #2ca02c"/>
     <use xlink:href="#mf767c7c4af" x="342.42" y="179.872765" style="fill: #2ca02c; stroke: #2ca02c"/>
     <use xlink:href="#mf767c7c4af" x="351.352727" y="179.872765" style="fill: #2ca02c; stroke: #2ca02c"/>
     <use xlink:href="#mf767c7c4af" x="360.285455" y="179.872765" style="fill: #2ca02c; stroke: #2ca02c"/>
     <use xlink:href="#mf767c7c4af" x="369.218182" y="179.872765" style="fill: #2ca02c; stroke: #2ca02c"/>
     <use xlink:href="#mf767c7c4af" x="378.150909" y="179.872765" style="fill: #2ca02c; stroke: #2ca02c"/>
     <use xlink:href="#mf767c7c4af" x="387.083636" y="181.555752" style="fill: #2ca02c; stroke: #2ca02c"/>
     <use xlink:href="#mf767c7c4af" x="396.016364" y="179.872765" style="fill: #2ca02c; stroke: #2ca02c"/>
     <use xlink:href="#mf767c7c4af" x="404.949091" y="179.872765" style="fill: #2ca02c; stroke: #2ca02c"/>
     <use xlink:href="#mf767c7c4af" x="413.881818" y="179.872765" style="fill: #2ca02c; stroke: #2ca02c"/>
     <use xlink:href="#mf767c7c4af" x="422.814545" y="179.872765" style="fill: #2ca02c; stroke: #2ca02c"/>
     <use xlink:href="#mf767c7c4af" x="431.747273" y="179.872765" style="fill: #2ca02c; stroke: #2ca02c"/>
     <use xlink:href="#mf767c7c4af" x="440.68" y="179.872765" style="fill: #2ca02c; stroke: #2ca02c"/>
     <use xlink:href="#mf767c7c4af" x="449.612727" y="178.189779" style="fill: #2ca02c; stroke: #2ca02c"/>
     <use xlink:href="#mf767c7c4af" x="458.545455" y="179.31177" style="fill: #2ca02c; stroke: #2ca02c"/>
     <use xlink:href="#mf767c7c4af" x="467.478182" y="179.872765" style="fill: #2ca02c; stroke: #2ca02c"/>
     <use xlink:href="#mf767c7c4af" x="476.410909" y="181.555752" style="fill: #2ca02c; stroke: #2ca02c"/>
     <use xlink:href="#mf767c7c4af" x="485.343636" y="179.872765" style="fill: #2ca02c; stroke: #2ca02c"/>
     <use xlink:href="#mf767c7c4af" x="494.276364" y="176.506792" style="fill: #2ca02c; stroke: #2ca02c"/>
     <use xlink:href="#mf767c7c4af" x="503.209091" y="179.872765" style="fill: #2ca02c; stroke: #2ca02c"/>
     <use xlink:href="#mf767c7c4af" x="512.141818" y="179.872765" style="fill: #2ca02c; stroke: #2ca02c"/>
     <use xlink:href="#mf767c7c4af" x="521.074545" y="179.872765" style="fill: #2ca02c; stroke: #2ca02c"/>
     <use xlink:href="#mf767c7c4af" x="530.007273" y="179.872765" style="fill: #2ca02c; stroke: #2ca02c"/>
     <use xlink:href="#mf767c7c4af" x="538.94" y="179.872765" style="fill: #2ca02c; stroke: #2ca02c"/>
     <use xlink:href="#mf767c7c4af" x="547.872727" y="179.872765" style="fill: #2ca02c; stroke: #2ca02c"/>
     <use xlink:href="#mf767c7c4af" x="556.805455" y="181.555752" style="fill: #2ca02c; stroke: #2ca02c"/>
     <use xlink:href="#mf767c7c4af" x="565.738182" y="179.872765" style="fill: #2ca02c; stroke: #2ca02c"/>
     <use xlink:href="#mf767c7c4af" x="574.670909" y="179.872765" style="fill: #2ca02c; stroke: #2ca02c"/>
     <use xlink:href="#mf767c7c4af" x="583.603636" y="180.994756" style="fill: #2ca02c; stroke: #2ca02c"/>
     <use xlink:href="#mf767c7c4af" x="592.536364" y="179.872765" style="fill: #2ca02c; stroke: #2ca02c"/>
     <use xlink:href="#mf767c7c4af" x="601.469091" y="179.872765" style="fill: #2ca02c; stroke: #2ca02c"/>
     <use xlink:href="#mf767c7c4af" x="610.401818" y="179.872765" style="fill: #2ca02c; stroke: #2ca02c"/>
    </g>
   </g>
   <g id="line2d_18">
    <path d="M 47.64 182.677742 
L 637.2 182.677742 
" clip-path="url(#p430591e1dd)" style="fill: none; stroke-dasharray: 3.7,1.6; stroke-dashoffset: 0; stroke: #2ca02c; stroke-opacity: 0.6"/>
   </g>
   <g id="line2d_19">
    <path d="M 47.64 107.504346 
L 637.2 107.504346 
" clip-path="url(#p430591e1dd)" style="fill: none; stroke-dasharray: 1,1.65; stroke-dashoffset: 0; stroke: #2ca02c; stroke-opacity: 0.6"/>
   </g>
   <g id="line2d_20">
    <path d="M 74.438182 248.875211 
L 83.370909 246.631229 
L 92.303636 246.631229 
L 101.236364 245.509238 
L 110.169091 247.75322 
L 119.101818 247.75322 
L 128.034545 246.070233 
L 136.967273 247.75322 
L 145.9 247.75322 
L 154.832727 246.631229 
L 163.765455 246.070233 
L 172.698182 246.631229 
L 181.630909 246.631229 
L 190.563636 246.631229 
L 199.496364 247.192224 
L 208.429091 247.75322 
L 217.361818 247.75322 
L 226.294545 247.192224 
L 235.227273 247.75322 
L 244.16 247.75322 
L 253.092727 247.192224 
L 262.025455 237.094305 
L 270.958182 247.75322 
L 279.890909 247.75322 
L 288.823636 237.094305 
L 297.756364 247.75322 
L 306.689091 237.094305 
L 315.621818 236.53331 
L 324.554545 247.75322 
L 333.487273 236.53331 
L 342.42 237.094305 
L 351.352727 230.362359 
L 360.285455 293.75485 
L 369.218182 237.094305 
L 378.150909 294.315846 
L 387.083636 237.094305 
L 396.016364 230.923355 
L 404.949091 293.75485 
L 413.881818 237.094305 
L 422.814545 293.75485 
L 431.747273 294.315846 
L 440.68 237.094305 
L 449.612727 237.094305 
L 458.545455 237.094305 
L 467.478182 237.094305 
L 476.410909 233.167337 
L 485.343636 294.315846 
L 494.276364 233.728332 
L 503.209091 244.387247 
L 512.141818 244.948242 
L 521.074545 233.167337 
L 530.007273 233.728332 
L 538.94 293.193855 
L 547.872727 294.315846 
L 556.805455 244.387247 
L 565.738182 242.143265 
L 574.670909 231.48435 
L 583.603636 293.75485 
L 592.536364 231.48435 
L 601.469091 231.48435 
L 610.401818 238.777292 
" clip-path="url(#p430591e1dd)" style="fill: none; stroke: #d62728; stroke-width: 1.5; stroke-linecap: square"/>
    <defs>
     <path id="mb13de29352" d="M 0 1.5 
C 0.397805 1.5 0.77937 1.341951 1.06066 1.06066 
C 1.341951 0.77937 1.5 0.397805 1.5 0 
C 1.5 -0.397805 1.341951 -0.77937 1.06066 -1.06066 
C 0.77937 -1.341951 0.397805 -1.5 0 -1.5 
C -0.397805 -1.5 -0.77937 -1.341951 -1.06066 -1.06066 
C -1.341951 -0.77937 -1.5 -0.397805 -1.5 0 
C -1.5 0.397805 -1.341951 0.77937 -1.06066 1.06066 
C -0.77937 1.341951 -0.397805 1.5 0 1.5 
z
" style="stroke: #d62728"/>
    </defs>
    <g clip-path="url(#p430591e1dd)">
     <use xlink:href="#mb13de29352" x="74.438182" y="248.875211" style="fill: #d62728; stroke: #d62728"/>
     <use xlink:href="#mb13de29352" x="83.370909" y="246.631229" style="fill: #d62728; stroke: #d62728"/>
     <use xlink:href="#mb13de29352" x="92.303636" y="246.631229" style="fill: #d62728; stroke: #d62728"/>
     <use xlink:href="#mb13de29352" x="101.236364" y="245.509238" style="fill: #d62728; stroke: #d62728"/>
     <use xlink:href="#mb13de29352" x="110.169091" y="247.75322" style="fill: #d62728; stroke: #d62728"/>
     <use xlink:href="#mb13de29352" x="119.101818" y="247.75322" style="fill: #d62728; stroke: #d62728"/>
     <use xlink:href="#mb13de29352" x="128.034545" y="246.070233" style="fill: #d62728; stroke: #d62728"/>
     <use xlink:href="#mb13de29352" x="136.967273" y="247.75322" style="fill: #d62728; stroke: #d62728"/>
     <use xlink:href="#mb13de29352" x="145.9" y="247.75322" style="fill: #d62728; stroke: #d62728"/>
     <use xlink:href="#mb13de29352" x="154.832727" y="246.631229" style="fill: #d62728; stroke: #d62728"/>
     <use xlink:href="#mb13de29352" x="163.765455" y="246.070233" style="fill: #d62728; stroke: #d62728"/>
     <use xlink:href="#mb13de29352" x="172.698182" y="246.631229" style="fill: #d62728; stroke: #d62728"/>
     <use xlink:href="#mb13de29352" x="181.630909" y="246.631229" style="fill: #d62728; stroke: #d62728"/>
     <use xlink:href="#mb13de29352" x="190.563636" y="246.631229" style="fill: #d62728; stroke: #d62728"/>
     <use xlink:href="#mb13de29352" x="199.496364" y="247.192224" style="fill: #d62728; stroke: #d62728"/>
     <use xlink:href="#mb13de29352" x="208.429091" y="247.75322" style="fill: #d62728; stroke: #d62728"/>
     <use xlink:href="#mb13de29352" x="217.361818" y="247.75322" style="fill: #d62728; stroke: #d62728"/>
     <use xlink:href="#mb13de29352" x="226.294545" y="247.192224" style="fill: #d62728; stroke: #d62728"/>
     <use xlink:href="#mb13de29352" x="235.227273" y="247.75322" style="fill: #d62728; stroke: #d62728"/>
     <use xlink:href="#mb13de29352" x="244.16" y="247.75322" style="fill: #d62728; stroke: #d62728"/>
     <use xlink:href="#mb13de29352" x="253.092727" y="247.192224" style="fill: #d62728; stroke: #d62728"/>
     <use xlink:href="#mb13de29352" x="262.025455" y="237.094305" style="fill: #d62728; stroke: #d62728"/>
     <use xlink:href="#mb13de29352" x="270.958182" y="247.75322" style="fill: #d62728; stroke: #d62728"/>
     <use xlink:href="#mb13de29352" x="279.890909" y="247.75322" style="fill: #d62728; stroke: #d62728"/>
     <use xlink:href="#mb13de29352" x="288.823636" y="237.094305" style="fill: #d62728; stroke: #d62728"/>
     <use xlink:href="#mb13de29352" x="297.756364" y="247.75322" style="fill: #d62728; stroke: #d62728"/>
     <use xlink:href="#mb13de29352" x="306.689091" y="237.094305" style="fill: #d62728; stroke: #d62728"/>
     <use xlink:href="#mb13de29352" x="315.621818" y="236.53331" style="fill: #d62728; stroke: #d62728"/>
     <use xlink:href="#mb13de29352" x="324.554545" y="247.75322" style="fill: #d62728; stroke: #d62728"/>
     <use xlink:href="#mb13de29352" x="333.487273" y="236.53331" style="fill: #d62728; stroke: #d62728"/>
     <use xlink:href="#mb13de29352" x="342.42" y="237.094305" style="fill: #d62728; stroke: #d62728"/>
     <use xlink:href="#mb13de29352" x="351.352727" y="230.362359" style="fill: #d62728; stroke: #d62728"/>
     <use xlink:href="#mb13de29352" x="360.285455" y="293.75485" style="fill: #d62728; stroke: #d62728"/>
     <use xlink:href="#mb13de29352" x="369.218182" y="237.094305" style="fill: #d62728; stroke: #d62728"/>
     <use xlink:href="#mb13de29352" x="378.150909" y="294.315846" style="fill: #d62728; stroke: #d62728"/>
     <use xlink:href="#mb13de29352" x="387.083636" y="237.094305" style="fill: #d62728; stroke: #d62728"/>
     <use xlink:href="#mb13de29352" x="396.016364" y="230.923355" style="fill: #d62728; stroke: #d62728"/>
     <use xlink:href="#mb13de29352" x="404.949091" y="293.75485" style="fill: #d62728; stroke: #d62728"/>
     <use xlink:href="#mb13de29352" x="413.881818" y="237.094305" style="fill: #d62728; stroke: #d62728"/>
     <use xlink:href="#mb13de29352" x="422.814545" y="293.75485" style="fill: #d62728; stroke: #d62728"/>
     <use xlink:href="#mb13de29352" x="431.747273" y="294.315846" style="fill: #d62728; stroke: #d62728"/>
     <use xlink:href="#mb13de29352" x="440.68" y="237.094305" style="fill: #d62728; stroke: #d62728"/>
     <use xlink:href="#mb13de29352" x="449.612727" y="237.094305" style="fill: #d62728; stroke: #d62728"/>
     <use xlink:href="#mb13de29352" x="458.545455" y="237.094305" style="fill: #d62728; stroke: #d62728"/>
     <use xlink:href="#mb13de29352" x="467.478182" y="237.094305" style="fill: #d62728; stroke: #d62728"/>
     <use xlink:href="#mb13de29352" x="476.410909" y="233.167337" style="fill: #d62728; stroke: #d62728"/>
     <use xlink:href="#mb13de29352" x="485.343636" y="294.315846" style="fill: #d62728; stroke: #d62728"/>
     <use xlink:href="#mb13de29352" x="494.276364" y="233.728332" style="fill: #d62728; stroke: #d62728"/>
     <use xlink:href="#mb13de29352" x="503.209091" y="244.387247" style="fill: #d62728; stroke: #d62728"/>
     <use xlink:href="#mb13de29352" x="512.141818" y="244.948242" style="fill: #d62728; stroke: #d62728"/>
     <use xlink:href="#mb13de29352" x="521.074545" y="233.167337" style="fill: #d62728; stroke: #d62728"/>
     <use xlink:href="#mb13de29352" x="530.007273" y="233.728332" style="fill: #d62728; stroke: #d62728"/>
     <use xlink:href="#mb13de29352" x="538.94" y="293.193855" style="fill: #d62728; stroke: #d62728"/>
     <use xlink:href="#mb13de29352" x="547.872727" y="294.315846" style="fill: #d62728; stroke: #d62728"/>
     <use xlink:href="#mb13de29352" x="556.805455" y="244.387247" style="fill: #d62728; stroke: #d62728"/>
     <use xlink:href="#mb13de29352" x="565.738182" y="242.143265" style="fill: #d62728; stroke: #d62728"/>
     <use xlink:href="#mb13de29352" x="574.670909" y="231.48435" style="fill: #d62728; stroke: #d62728"/>
     <use xlink:href="#mb13de29352" x="583.603636" y="293.75485" style="fill: #d62728; stroke: #d62728"/>
     <use xlink:href="#mb13de29352" x="592.536364" y="231.48435" style="fill: #d62728; stroke: #d62728"/>
     <use xlink:href="#mb13de29352" x="601.469091" y="231.48435" style="fill: #d62728; stroke: #d62728"/>
     <use xlink:href="#mb13de29352" x="610.401818" y="238.777292" style="fill: #d62728; stroke: #d62728"/>
    </g>
   </g>
   <g id="line2d_21">
    <path d="M 47.64 248.875211 
L 637.2 248.875211 
" clip-path="url(#p430591e1dd)" style="fill: none; stroke-dasharray: 3.7,1.6; stroke-dashoffset: 0; stroke: #d62728; stroke-opacity: 0.6"/>
   </g>
   <g id="line2d_22">
    <path d="M 47.64 223.630413 
L 637.2 223.630413 
" clip-path="url(#p430591e1dd)" style="fill: none; stroke-dasharray: 1,1.65; stroke-dashoffset: 0; stroke: #d62728; stroke-opacity: 0.6"/>
   </g>
   <g id="patch_3">
    <path d="M 47.64 317.877656 
L 47.64 26.16 
" style="fill: none; stroke: #000000; stroke-width: 0.8; stroke-linejoin: miter; stroke-linecap: square"/>
   </g>
   <g id="patch_4">
    <path d="M 637.2 317.877656 
L 637.2 26.16 
" style="fill: none; stroke: #000000; stroke-width: 0.8; stroke-linejoin: miter; stroke-linecap: square"/>
   </g>
   <g id="patch_5">
    <path d="M 47.64 317.877656 
L 637.2 317.877656 
" style="fill: none; stroke: #000000; stroke-width: 0.8; stroke-linejoin: miter; stroke-linecap: square"/>
   </g>
   <g id="patch_6">
    <path d="M 47.64 26.16 
L 637.2 26.16 
" style="fill: none; stroke: #000000; stroke-width: 0.8; stroke-linejoin: miter; stroke-linecap: square"/>
   </g>
   <g id="text_16">
    <!-- success_rate (overall/covered/held-out) vs. epoch (clip_eps=0.3, gae_lambda=1.0) -->
    <g transform="translate(92.676562 20.16) scale(0.12 -0.12)">
     <defs>
      <path id="DejaVuSans-3" transform="scale(0.015625)"/>
      <path id="DejaVuSans-b" d="M 1984 4856 
Q 1566 4138 1362 3434 
Q 1159 2731 1159 2009 
Q 1159 1288 1364 580 
Q 1569 -128 1984 -844 
L 1484 -844 
Q 1016 -109 783 600 
Q 550 1309 550 2009 
Q 550 2706 781 3412 
Q 1013 4119 1484 4856 
L 1984 4856 
z
" transform="scale(0.015625)"/>
      <path id="DejaVuSans-59" d="M 191 3500 
L 800 3500 
L 1894 563 
L 2988 3500 
L 3597 3500 
L 2284 0 
L 1503 0 
L 191 3500 
z
" transform="scale(0.015625)"/>
      <path id="DejaVuSans-4f" d="M 603 4863 
L 1178 4863 
L 1178 0 
L 603 0 
L 603 4863 
z
" transform="scale(0.015625)"/>
      <path id="DejaVuSans-12" d="M 1625 4666 
L 2156 4666 
L 531 -594 
L 0 -594 
L 1625 4666 
z
" transform="scale(0.015625)"/>
      <path id="DejaVuSans-47" d="M 2906 2969 
L 2906 4863 
L 3481 4863 
L 3481 0 
L 2906 0 
L 2906 525 
Q 2725 213 2448 61 
Q 2172 -91 1784 -91 
Q 1150 -91 751 415 
Q 353 922 353 1747 
Q 353 2572 751 3078 
Q 1150 3584 1784 3584 
Q 2172 3584 2448 3432 
Q 2725 3281 2906 2969 
z
M 947 1747 
Q 947 1113 1208 752 
Q 1469 391 1925 391 
Q 2381 391 2643 752 
Q 2906 1113 2906 1747 
Q 2906 2381 2643 2742 
Q 2381 3103 1925 3103 
Q 1469 3103 1208 2742 
Q 947 2381 947 1747 
z
" transform="scale(0.015625)"/>
      <path id="DejaVuSans-10" d="M 313 2009 
L 1997 2009 
L 1997 1497 
L 313 1497 
L 313 2009 
z
" transform="scale(0.015625)"/>
      <path id="DejaVuSans-c" d="M 513 4856 
L 1013 4856 
Q 1481 4119 1714 3412 
Q 1947 2706 1947 2009 
Q 1947 1309 1714 600 
Q 1481 -109 1013 -844 
L 513 -844 
Q 928 -128 1133 580 
Q 1338 1288 1338 2009 
Q 1338 2731 1133 3434 
Q 928 4138 513 4856 
z
" transform="scale(0.015625)"/>
      <path id="DejaVuSans-4c" d="M 603 3500 
L 1178 3500 
L 1178 0 
L 603 0 
L 603 3500 
z
M 603 4863 
L 1178 4863 
L 1178 4134 
L 603 4134 
L 603 4863 
z
" transform="scale(0.015625)"/>
      <path id="DejaVuSans-20" d="M 678 2906 
L 4684 2906 
L 4684 2381 
L 678 2381 
L 678 2906 
z
M 678 1631 
L 4684 1631 
L 4684 1100 
L 678 1100 
L 678 1631 
z
" transform="scale(0.015625)"/>
      <path id="DejaVuSans-f" d="M 750 794 
L 1409 794 
L 1409 256 
L 897 -744 
L 494 -744 
L 750 256 
L 750 794 
z
" transform="scale(0.015625)"/>
      <path id="DejaVuSans-4a" d="M 2906 1791 
Q 2906 2416 2648 2759 
Q 2391 3103 1925 3103 
Q 1463 3103 1205 2759 
Q 947 2416 947 1791 
Q 947 1169 1205 825 
Q 1463 481 1925 481 
Q 2391 481 2648 825 
Q 2906 1169 2906 1791 
z
M 3481 434 
Q 3481 -459 3084 -895 
Q 2688 -1331 1869 -1331 
Q 1566 -1331 1297 -1286 
Q 1028 -1241 775 -1147 
L 775 -588 
Q 1028 -725 1275 -790 
Q 1522 -856 1778 -856 
Q 2344 -856 2625 -561 
Q 2906 -266 2906 331 
L 2906 616 
Q 2728 306 2450 153 
Q 2172 0 1784 0 
Q 1141 0 747 490 
Q 353 981 353 1791 
Q 353 2603 747 3093 
Q 1141 3584 1784 3584 
Q 2172 3584 2450 3431 
Q 2728 3278 2906 2969 
L 2906 3500 
L 3481 3500 
L 3481 434 
z
" transform="scale(0.015625)"/>
      <path id="DejaVuSans-50" d="M 3328 2828 
Q 3544 3216 3844 3400 
Q 4144 3584 4550 3584 
Q 5097 3584 5394 3201 
Q 5691 2819 5691 2113 
L 5691 0 
L 5113 0 
L 5113 2094 
Q 5113 2597 4934 2840 
Q 4756 3084 4391 3084 
Q 3944 3084 3684 2787 
Q 3425 2491 3425 1978 
L 3425 0 
L 2847 0 
L 2847 2094 
Q 2847 2600 2669 2842 
Q 2491 3084 2119 3084 
Q 1678 3084 1418 2786 
Q 1159 2488 1159 1978 
L 1159 0 
L 581 0 
L 581 3500 
L 1159 3500 
L 1159 2956 
Q 1356 3278 1631 3431 
Q 1906 3584 2284 3584 
Q 2666 3584 2933 3390 
Q 3200 3197 3328 2828 
z
" transform="scale(0.015625)"/>
      <path id="DejaVuSans-45" d="M 3116 1747 
Q 3116 2381 2855 2742 
Q 2594 3103 2138 3103 
Q 1681 3103 1420 2742 
Q 1159 2381 1159 1747 
Q 1159 1113 1420 752 
Q 1681 391 2138 391 
Q 2594 391 2855 752 
Q 3116 1113 3116 1747 
z
M 1159 2969 
Q 1341 3281 1617 3432 
Q 1894 3584 2278 3584 
Q 2916 3584 3314 3078 
Q 3713 2572 3713 1747 
Q 3713 922 3314 415 
Q 2916 -91 2278 -91 
Q 1894 -91 1617 61 
Q 1341 213 1159 525 
L 1159 0 
L 581 0 
L 581 4863 
L 1159 4863 
L 1159 2969 
z
" transform="scale(0.015625)"/>
     </defs>
     <use xlink:href="#DejaVuSans-56"/>
     <use xlink:href="#DejaVuSans-58" transform="translate(52.09375 0)"/>
     <use xlink:href="#DejaVuSans-46" transform="translate(115.46875 0)"/>
     <use xlink:href="#DejaVuSans-46" transform="translate(170.453125 0)"/>
     <use xlink:href="#DejaVuSans-48" transform="translate(225.4375 0)"/>
     <use xlink:href="#DejaVuSans-56" transform="translate(286.96875 0)"/>
     <use xlink:href="#DejaVuSans-56" transform="translate(339.0625 0)"/>
     <use xlink:href="#DejaVuSans-42" transform="translate(391.15625 0)"/>
     <use xlink:href="#DejaVuSans-55" transform="translate(441.15625 0)"/>
     <use xlink:href="#DejaVuSans-44" transform="translate(482.265625 0)"/>
     <use xlink:href="#DejaVuSans-57" transform="translate(543.546875 0)"/>
     <use xlink:href="#DejaVuSans-48" transform="translate(582.75 0)"/>
     <use xlink:href="#DejaVuSans-3" transform="translate(644.28125 0)"/>
     <use xlink:href="#DejaVuSans-b" transform="translate(676.0625 0)"/>
     <use xlink:href="#DejaVuSans-52" transform="translate(715.078125 0)"/>
     <use xlink:href="#DejaVuSans-59" transform="translate(776.265625 0)"/>
     <use xlink:href="#DejaVuSans-48" transform="translate(835.453125 0)"/>
     <use xlink:href="#DejaVuSans-55" transform="translate(896.984375 0)"/>
     <use xlink:href="#DejaVuSans-44" transform="translate(938.09375 0)"/>
     <use xlink:href="#DejaVuSans-4f" transform="translate(999.375 0)"/>
     <use xlink:href="#DejaVuSans-4f" transform="translate(1027.15625 0)"/>
     <use xlink:href="#DejaVuSans-12" transform="translate(1054.9375 0)"/>
     <use xlink:href="#DejaVuSans-46" transform="translate(1088.625 0)"/>
     <use xlink:href="#DejaVuSans-52" transform="translate(1143.609375 0)"/>
     <use xlink:href="#DejaVuSans-59" transform="translate(1204.796875 0)"/>
     <use xlink:href="#DejaVuSans-48" transform="translate(1263.984375 0)"/>
     <use xlink:href="#DejaVuSans-55" transform="translate(1325.515625 0)"/>
     <use xlink:href="#DejaVuSans-48" transform="translate(1364.421875 0)"/>
     <use xlink:href="#DejaVuSans-47" transform="translate(1425.953125 0)"/>
     <use xlink:href="#DejaVuSans-12" transform="translate(1489.4375 0)"/>
     <use xlink:href="#DejaVuSans-4b" transform="translate(1523.125 0)"/>
     <use xlink:href="#DejaVuSans-48" transform="translate(1586.5 0)"/>
     <use xlink:href="#DejaVuSans-4f" transform="translate(1648.03125 0)"/>
     <use xlink:href="#DejaVuSans-47" transform="translate(1675.8125 0)"/>
     <use xlink:href="#DejaVuSans-10" transform="translate(1739.296875 0)"/>
     <use xlink:href="#DejaVuSans-52" transform="translate(1777.234375 0)"/>
     <use xlink:href="#DejaVuSans-58" transform="translate(1838.421875 0)"/>
     <use xlink:href="#DejaVuSans-57" transform="translate(1901.796875 0)"/>
     <use xlink:href="#DejaVuSans-c" transform="translate(1941 0)"/>
     <use xlink:href="#DejaVuSans-3" transform="translate(1980.015625 0)"/>
     <use xlink:href="#DejaVuSans-59" transform="translate(2011.796875 0)"/>
     <use xlink:href="#DejaVuSans-56" transform="translate(2070.984375 0)"/>
     <use xlink:href="#DejaVuSans-11" transform="translate(2123.078125 0)"/>
     <use xlink:href="#DejaVuSans-3" transform="translate(2154.859375 0)"/>
     <use xlink:href="#DejaVuSans-48" transform="translate(2186.640625 0)"/>
     <use xlink:href="#DejaVuSans-53" transform="translate(2248.171875 0)"/>
     <use xlink:href="#DejaVuSans-52" transform="translate(2311.65625 0)"/>
     <use xlink:href="#DejaVuSans-46" transform="translate(2372.84375 0)"/>
     <use xlink:href="#DejaVuSans-4b" transform="translate(2427.828125 0)"/>
     <use xlink:href="#DejaVuSans-3" transform="translate(2491.203125 0)"/>
     <use xlink:href="#DejaVuSans-b" transform="translate(2522.984375 0)"/>
     <use xlink:href="#DejaVuSans-46" transform="translate(2562 0)"/>
     <use xlink:href="#DejaVuSans-4f" transform="translate(2616.984375 0)"/>
     <use xlink:href="#DejaVuSans-4c" transform="translate(2644.765625 0)"/>
     <use xlink:href="#DejaVuSans-53" transform="translate(2672.546875 0)"/>
     <use xlink:href="#DejaVuSans-42" transform="translate(2736.03125 0)"/>
     <use xlink:href="#DejaVuSans-48" transform="translate(2786.03125 0)"/>
     <use xlink:href="#DejaVuSans-53" transform="translate(2847.5625 0)"/>
     <use xlink:href="#DejaVuSans-56" transform="translate(2911.046875 0)"/>
     <use xlink:href="#DejaVuSans-20" transform="translate(2963.140625 0)"/>
     <use xlink:href="#DejaVuSans-13" transform="translate(3046.9375 0)"/>
     <use xlink:href="#DejaVuSans-11" transform="translate(3110.5625 0)"/>
     <use xlink:href="#DejaVuSans-16" transform="translate(3142.34375 0)"/>
     <use xlink:href="#DejaVuSans-f" transform="translate(3205.96875 0)"/>
     <use xlink:href="#DejaVuSans-3" transform="translate(3237.75 0)"/>
     <use xlink:href="#DejaVuSans-4a" transform="translate(3269.53125 0)"/>
     <use xlink:href="#DejaVuSans-44" transform="translate(3333.015625 0)"/>
     <use xlink:href="#DejaVuSans-48" transform="translate(3394.296875 0)"/>
     <use xlink:href="#DejaVuSans-42" transform="translate(3455.828125 0)"/>
     <use xlink:href="#DejaVuSans-4f" transform="translate(3505.828125 0)"/>
     <use xlink:href="#DejaVuSans-44" transform="translate(3533.609375 0)"/>
     <use xlink:href="#DejaVuSans-50" transform="translate(3594.890625 0)"/>
     <use xlink:href="#DejaVuSans-45" transform="translate(3692.296875 0)"/>
     <use xlink:href="#DejaVuSans-47" transform="translate(3755.78125 0)"/>
     <use xlink:href="#DejaVuSans-44" transform="translate(3819.265625 0)"/>
     <use xlink:href="#DejaVuSans-20" transform="translate(3880.546875 0)"/>
     <use xlink:href="#DejaVuSans-14" transform="translate(3964.34375 0)"/>
     <use xlink:href="#DejaVuSans-11" transform="translate(4027.96875 0)"/>
     <use xlink:href="#DejaVuSans-13" transform="translate(4059.75 0)"/>
     <use xlink:href="#DejaVuSans-c" transform="translate(4123.375 0)"/>
    </g>
   </g>
   <g id="legend_1">
    <g id="patch_7">
     <path d="M 512.2425 68.561875 
L 631.6 68.561875 
Q 633.2 68.561875 633.2 66.961875 
L 633.2 31.76 
Q 633.2 30.16 631.6 30.16 
L 512.2425 30.16 
Q 510.6425 30.16 510.6425 31.76 
L 510.6425 66.961875 
Q 510.6425 68.561875 512.2425 68.561875 
z
" style="fill: #ffffff; opacity: 0.8; stroke: #cccccc; stroke-linejoin: miter"/>
    </g>
    <g id="line2d_23">
     <path d="M 513.8425 36.63875 
L 521.8425 36.63875 
L 529.8425 36.63875 
" style="fill: none; stroke: #1f77b4; stroke-width: 1.5; stroke-linecap: square"/>
     <g>
      <use xlink:href="#md0f12d99bb" x="521.8425" y="36.63875" style="fill: #1f77b4; stroke: #1f77b4"/>
     </g>
    </g>
    <g id="text_17">
     <!-- success_rate (overall) -->
     <g transform="translate(536.2425 39.43875) scale(0.08 -0.08)">
      <use xlink:href="#DejaVuSans-56"/>
      <use xlink:href="#DejaVuSans-58" transform="translate(52.09375 0)"/>
      <use xlink:href="#DejaVuSans-46" transform="translate(115.46875 0)"/>
      <use xlink:href="#DejaVuSans-46" transform="translate(170.453125 0)"/>
      <use xlink:href="#DejaVuSans-48" transform="translate(225.4375 0)"/>
      <use xlink:href="#DejaVuSans-56" transform="translate(286.96875 0)"/>
      <use xlink:href="#DejaVuSans-56" transform="translate(339.0625 0)"/>
      <use xlink:href="#DejaVuSans-42" transform="translate(391.15625 0)"/>
      <use xlink:href="#DejaVuSans-55" transform="translate(441.15625 0)"/>
      <use xlink:href="#DejaVuSans-44" transform="translate(482.265625 0)"/>
      <use xlink:href="#DejaVuSans-57" transform="translate(543.546875 0)"/>
      <use xlink:href="#DejaVuSans-48" transform="translate(582.75 0)"/>
      <use xlink:href="#DejaVuSans-3" transform="translate(644.28125 0)"/>
      <use xlink:href="#DejaVuSans-b" transform="translate(676.0625 0)"/>
      <use xlink:href="#DejaVuSans-52" transform="translate(715.078125 0)"/>
      <use xlink:href="#DejaVuSans-59" transform="translate(776.265625 0)"/>
      <use xlink:href="#DejaVuSans-48" transform="translate(835.453125 0)"/>
      <use xlink:href="#DejaVuSans-55" transform="translate(896.984375 0)"/>
      <use xlink:href="#DejaVuSans-44" transform="translate(938.09375 0)"/>
      <use xlink:href="#DejaVuSans-4f" transform="translate(999.375 0)"/>
      <use xlink:href="#DejaVuSans-4f" transform="translate(1027.15625 0)"/>
      <use xlink:href="#DejaVuSans-c" transform="translate(1054.9375 0)"/>
     </g>
    </g>
    <g id="line2d_24">
     <path d="M 513.8425 48.639375 
L 521.8425 48.639375 
L 529.8425 48.639375 
" style="fill: none; stroke: #2ca02c; stroke-width: 1.5; stroke-linecap: square"/>
     <g>
      <use xlink:href="#mf767c7c4af" x="521.8425" y="48.639375" style="fill: #2ca02c; stroke: #2ca02c"/>
     </g>
    </g>
    <g id="text_18">
     <!-- success_rate (covered) -->
     <g transform="translate(536.2425 51.439375) scale(0.08 -0.08)">
      <use xlink:href="#DejaVuSans-56"/>
      <use xlink:href="#DejaVuSans-58" transform="translate(52.09375 0)"/>
      <use xlink:href="#DejaVuSans-46" transform="translate(115.46875 0)"/>
      <use xlink:href="#DejaVuSans-46" transform="translate(170.453125 0)"/>
      <use xlink:href="#DejaVuSans-48" transform="translate(225.4375 0)"/>
      <use xlink:href="#DejaVuSans-56" transform="translate(286.96875 0)"/>
      <use xlink:href="#DejaVuSans-56" transform="translate(339.0625 0)"/>
      <use xlink:href="#DejaVuSans-42" transform="translate(391.15625 0)"/>
      <use xlink:href="#DejaVuSans-55" transform="translate(441.15625 0)"/>
      <use xlink:href="#DejaVuSans-44" transform="translate(482.265625 0)"/>
      <use xlink:href="#DejaVuSans-57" transform="translate(543.546875 0)"/>
      <use xlink:href="#DejaVuSans-48" transform="translate(582.75 0)"/>
      <use xlink:href="#DejaVuSans-3" transform="translate(644.28125 0)"/>
      <use xlink:href="#DejaVuSans-b" transform="translate(676.0625 0)"/>
      <use xlink:href="#DejaVuSans-46" transform="translate(715.078125 0)"/>
      <use xlink:href="#DejaVuSans-52" transform="translate(770.0625 0)"/>
      <use xlink:href="#DejaVuSans-59" transform="translate(831.25 0)"/>
      <use xlink:href="#DejaVuSans-48" transform="translate(890.4375 0)"/>
      <use xlink:href="#DejaVuSans-55" transform="translate(951.96875 0)"/>
      <use xlink:href="#DejaVuSans-48" transform="translate(990.875 0)"/>
      <use xlink:href="#DejaVuSans-47" transform="translate(1052.40625 0)"/>
      <use xlink:href="#DejaVuSans-c" transform="translate(1115.890625 0)"/>
     </g>
    </g>
    <g id="line2d_25">
     <path d="M 513.8425 60.64 
L 521.8425 60.64 
L 529.8425 60.64 
" style="fill: none; stroke: #d62728; stroke-width: 1.5; stroke-linecap: square"/>
     <g>
      <use xlink:href="#mb13de29352" x="521.8425" y="60.64" style="fill: #d62728; stroke: #d62728"/>
     </g>
    </g>
    <g id="text_19">
     <!-- success_rate (held-out) -->
     <g transform="translate(536.2425 63.44) scale(0.08 -0.08)">
      <use xlink:href="#DejaVuSans-56"/>
      <use xlink:href="#DejaVuSans-58" transform="translate(52.09375 0)"/>
      <use xlink:href="#DejaVuSans-46" transform="translate(115.46875 0)"/>
      <use xlink:href="#DejaVuSans-46" transform="translate(170.453125 0)"/>
      <use xlink:href="#DejaVuSans-48" transform="translate(225.4375 0)"/>
      <use xlink:href="#DejaVuSans-56" transform="translate(286.96875 0)"/>
      <use xlink:href="#DejaVuSans-56" transform="translate(339.0625 0)"/>
      <use xlink:href="#DejaVuSans-42" transform="translate(391.15625 0)"/>
      <use xlink:href="#DejaVuSans-55" transform="translate(441.15625 0)"/>
      <use xlink:href="#DejaVuSans-44" transform="translate(482.265625 0)"/>
      <use xlink:href="#DejaVuSans-57" transform="translate(543.546875 0)"/>
      <use xlink:href="#DejaVuSans-48" transform="translate(582.75 0)"/>
      <use xlink:href="#DejaVuSans-3" transform="translate(644.28125 0)"/>
      <use xlink:href="#DejaVuSans-b" transform="translate(676.0625 0)"/>
      <use xlink:href="#DejaVuSans-4b" transform="translate(715.078125 0)"/>
      <use xlink:href="#DejaVuSans-48" transform="translate(778.453125 0)"/>
      <use xlink:href="#DejaVuSans-4f" transform="translate(839.984375 0)"/>
      <use xlink:href="#DejaVuSans-47" transform="translate(867.765625 0)"/>
      <use xlink:href="#DejaVuSans-10" transform="translate(931.25 0)"/>
      <use xlink:href="#DejaVuSans-52" transform="translate(969.1875 0)"/>
      <use xlink:href="#DejaVuSans-58" transform="translate(1030.375 0)"/>
      <use xlink:href="#DejaVuSans-57" transform="translate(1093.75 0)"/>
      <use xlink:href="#DejaVuSans-c" transform="translate(1132.953125 0)"/>
     </g>
    </g>
   </g>
  </g>
 </g>
 <defs>
  <clipPath id="p430591e1dd">
   <rect x="47.64" y="26.16" width="589.56" height="291.717656"/>
  </clipPath>
 </defs>
</svg>
